<svg width="120" height="445" viewBox="0 0 120 445" fill="none" xmlns="http://www.w3.org/2000/svg">
<circle cx="107" cy="5" r="3" fill="black"/>
<path d="M108.875 5C108.875 6.03553 108.036 6.875 107 6.875C105.964 6.875 105.125 6.03553 105.125 5C105.125 3.96447 105.964 3.125 107 3.125C108.036 3.125 108.875 3.96447 108.875 5ZM105.294 5C105.294 5.94198 106.058 6.70561 107 6.70561C107.942 6.70561 108.706 5.94198 108.706 5C108.706 4.05802 107.942 3.29439 107 3.29439C106.058 3.29439 105.294 4.05802 105.294 5Z" fill="white"/>
<circle cx="107" cy="4.9999" r="0.975" fill="white"/>
<mask id="path-4-inside-1_539_3355" fill="white">
<path d="M110 5C110 6.65685 108.657 8 107 8C105.343 8 104 6.65685 104 5C104 3.34315 105.343 2 107 2C108.657 2 110 3.34315 110 5ZM104.271 5C104.271 6.50717 105.493 7.72897 107 7.72897C108.507 7.72897 109.729 6.50717 109.729 5C109.729 3.49283 108.507 2.27103 107 2.27103C105.493 2.27103 104.271 3.49283 104.271 5Z"/>
</mask>
<path d="M110 5C110 6.65685 108.657 8 107 8C105.343 8 104 6.65685 104 5C104 3.34315 105.343 2 107 2C108.657 2 110 3.34315 110 5ZM104.271 5C104.271 6.50717 105.493 7.72897 107 7.72897C108.507 7.72897 109.729 6.50717 109.729 5C109.729 3.49283 108.507 2.27103 107 2.27103C105.493 2.27103 104.271 3.49283 104.271 5Z" fill="white" fill-opacity="0.5" stroke="#9C9C9C" stroke-width="1.5" mask="url(#path-4-inside-1_539_3355)"/>
<circle cx="61" cy="5" r="3" fill="#21201E"/>
<g clip-path="url(#clip0_539_3355)">
<path d="M59.3538 5.65879L61.0001 4.01245L62.6465 5.65879L62.3543 5.95102L61.0001 4.5969L59.646 5.95102L59.3538 5.65879Z" fill="#F8F8F8"/>
</g>
<circle cx="13" cy="5" r="3" fill="#9C9C9C"/>
<circle cx="13.0002" cy="4.99991" r="2.61538" fill="#050402"/>
<path d="M12.9647 5.2003L12.2433 5.0463L13.6788 3.21561L13.4356 4.38492L14.1569 4.53892L12.7215 6.36961L12.9647 5.2003Z" fill="#F8F8F8"/>
<ellipse cx="60.9991" cy="394" rx="7.68462" ry="7.68519" fill="white"/>
<path d="M70.9985 394C70.9985 399.523 66.5217 404 60.9993 404C55.4768 404 51 399.523 51 394C51 388.477 55.4768 384 60.9993 384C66.5217 384 70.9985 388.477 70.9985 394ZM52.2446 394C52.2446 398.835 56.1642 402.755 60.9993 402.755C65.8343 402.755 69.7539 398.835 69.7539 394C69.7539 389.165 65.8343 385.245 60.9993 385.245C56.1642 385.245 52.2446 389.165 52.2446 394Z" fill="white"/>
<rect x="13" y="387" width="14" height="14" rx="3" fill="white"/>
<circle cx="101.5" cy="393.5" r="6.5" fill="black" fill-opacity="0.35"/>
<path d="M104.631 394.816C104.419 395.481 103.918 396.049 103.225 396.406C102.533 396.762 101.7 396.883 100.891 396.743C100.083 396.603 99.357 396.213 98.8576 395.65C98.3582 395.087 98.1214 394.392 98.1942 393.702L98.5528 393.738C98.4881 394.352 98.6988 394.971 99.1434 395.472C99.588 395.973 100.234 396.32 100.954 396.445C101.674 396.569 102.415 396.462 103.032 396.144C103.648 395.827 104.095 395.322 104.283 394.729L104.631 394.816Z" fill="white"/>
<path d="M98.4522 392.723L99.0581 393.788L97.6794 393.674L98.4522 392.723Z" fill="white"/>
<path d="M98.2812 392.184C98.4928 391.519 98.9944 390.951 99.6867 390.594C100.379 390.238 101.212 390.117 102.021 390.257C102.829 390.397 103.555 390.787 104.055 391.35C104.554 391.913 104.791 392.608 104.718 393.298L104.359 393.262C104.424 392.648 104.213 392.029 103.769 391.528C103.324 391.027 102.678 390.68 101.958 390.555C101.238 390.431 100.497 390.538 99.8804 390.856C99.264 391.173 98.8175 391.678 98.6291 392.271L98.2812 392.184Z" fill="white"/>
<path d="M104.46 394.277L103.854 393.212L105.233 393.326L104.46 394.277Z" fill="white"/>
<path d="M6.63867 373.486V373.863C6.63867 374.048 6.66602 374.206 6.7207 374.336C6.77539 374.466 6.85482 374.566 6.95898 374.635C7.06315 374.702 7.18945 374.736 7.33789 374.736C7.45247 374.736 7.55404 374.716 7.64258 374.676C7.73112 374.635 7.80273 374.579 7.85742 374.508C7.91341 374.435 7.94727 374.352 7.95898 374.258H8.31445C8.31445 374.26 8.31445 374.263 8.31445 374.266C8.31445 374.267 8.31445 374.268 8.31445 374.27C8.30143 374.421 8.25065 374.555 8.16211 374.674C8.07487 374.792 7.95964 374.885 7.81641 374.953C7.67448 375.021 7.51432 375.055 7.33594 375.055C7.11068 375.055 6.91862 375.008 6.75977 374.916C6.60221 374.822 6.48242 374.687 6.40039 374.51C6.31836 374.333 6.27734 374.118 6.27734 373.867V373.482C6.27734 373.231 6.31901 373.016 6.40234 372.836C6.48568 372.656 6.60677 372.519 6.76562 372.424C6.92448 372.327 7.11458 372.279 7.33594 372.279C7.47005 372.279 7.5944 372.299 7.70898 372.34C7.82357 372.38 7.92448 372.438 8.01172 372.512C8.09896 372.586 8.16862 372.673 8.2207 372.773C8.27409 372.874 8.30534 372.984 8.31445 373.105C8.31445 373.107 8.31445 373.109 8.31445 373.111C8.31445 373.113 8.31445 373.115 8.31445 373.117H7.95898C7.94727 373.016 7.91341 372.926 7.85742 372.85C7.80143 372.771 7.72852 372.71 7.63867 372.666C7.55013 372.62 7.44987 372.598 7.33789 372.598C7.19206 372.598 7.06706 372.633 6.96289 372.705C6.85872 372.775 6.77865 372.877 6.72266 373.01C6.66667 373.141 6.63867 373.3 6.63867 373.486ZM9.29297 375H8.93359V372.334H9.29297V375ZM10.3848 375H10.0312V372.334H10.3711L11.6895 374.385H11.707V372.334H12.0605V375H11.7207L10.3984 372.947H10.3848V375ZM14.4121 374.684V375H12.8008V372.334H14.4121V372.65H13.1582V373.486H14.3418V373.795H13.1582V374.684H14.4121ZM15.3887 375H15.0625V372.334H15.416L16.2852 374.377H16.2969L17.1641 372.334H17.5156V375H17.1895V373.062H17.1699L16.4355 374.766H16.1426L15.4062 373.062H15.3887V375ZM18.3691 375H17.9961L18.9395 372.334H19.3125L20.2539 375H19.875L19.6133 374.211H18.6309L18.3691 375ZM19.1289 372.746H19.1152L18.7246 373.924H19.5215L19.1289 372.746ZM21.4414 375H21.082V372.652H20.2773V372.334H22.2441V372.652H21.4414V375ZM23.0664 375H22.707V372.334H23.0664V375ZM24.0605 373.486V373.863C24.0605 374.048 24.0879 374.206 24.1426 374.336C24.1973 374.466 24.2767 374.566 24.3809 374.635C24.485 374.702 24.6113 374.736 24.7598 374.736C24.8743 374.736 24.9759 374.716 25.0645 374.676C25.153 374.635 25.2246 374.579 25.2793 374.508C25.3353 374.435 25.3691 374.352 25.3809 374.258H25.7363C25.7363 374.26 25.7363 374.263 25.7363 374.266C25.7363 374.267 25.7363 374.268 25.7363 374.27C25.7233 374.421 25.6725 374.555 25.584 374.674C25.4967 374.792 25.3815 374.885 25.2383 374.953C25.0964 375.021 24.9362 375.055 24.7578 375.055C24.5326 375.055 24.3405 375.008 24.1816 374.916C24.0241 374.822 23.9043 374.687 23.8223 374.51C23.7402 374.333 23.6992 374.118 23.6992 373.867V373.482C23.6992 373.231 23.7409 373.016 23.8242 372.836C23.9076 372.656 24.0286 372.519 24.1875 372.424C24.3464 372.327 24.5365 372.279 24.7578 372.279C24.8919 372.279 25.0163 372.299 25.1309 372.34C25.2454 372.38 25.3464 372.438 25.4336 372.512C25.5208 372.586 25.5905 372.673 25.6426 372.773C25.696 372.874 25.7272 372.984 25.7363 373.105C25.7363 373.107 25.7363 373.109 25.7363 373.111C25.7363 373.113 25.7363 373.115 25.7363 373.117H25.3809C25.3691 373.016 25.3353 372.926 25.2793 372.85C25.2233 372.771 25.1504 372.71 25.0605 372.666C24.972 372.62 24.8717 372.598 24.7598 372.598C24.6139 372.598 24.4889 372.633 24.3848 372.705C24.2806 372.775 24.2005 372.877 24.1445 373.01C24.0885 373.141 24.0605 373.3 24.0605 373.486Z" fill="white"/>
<path d="M35.4805 375L34.5254 372.334H34.9355L35.6621 374.578H35.6816L36.4062 372.334H36.8125L35.8574 375H35.4805ZM37.627 375H37.2676V372.334H37.627V375ZM38.3652 372.334H39.2324C39.4915 372.334 39.7077 372.385 39.8809 372.486C40.0553 372.587 40.1862 372.736 40.2734 372.934C40.362 373.132 40.4062 373.376 40.4062 373.666C40.4062 373.955 40.362 374.199 40.2734 374.398C40.1862 374.596 40.0553 374.746 39.8809 374.848C39.7077 374.949 39.4915 375 39.2324 375H38.3652V372.334ZM38.7246 372.648V374.684H39.207C39.3451 374.684 39.4661 374.663 39.5703 374.621C39.6745 374.578 39.7604 374.514 39.8281 374.43C39.8958 374.345 39.9466 374.24 39.9805 374.113C40.0156 373.987 40.0332 373.839 40.0332 373.668C40.0332 373.441 40.0026 373.253 39.9414 373.102C39.8815 372.951 39.7904 372.837 39.668 372.762C39.5456 372.686 39.3919 372.648 39.207 372.648H38.7246ZM42.6094 374.684V375H40.998V372.334H42.6094V372.65H41.3555V373.486H42.5391V373.795H41.3555V374.684H42.6094ZM44.9336 373.473C44.9336 373.276 44.9017 373.113 44.8379 372.984C44.7754 372.855 44.6908 372.759 44.584 372.695C44.4772 372.63 44.3561 372.598 44.2207 372.598C44.0853 372.598 43.9635 372.63 43.8555 372.695C43.7487 372.759 43.6641 372.855 43.6016 372.984C43.5391 373.113 43.5078 373.276 43.5078 373.473V373.861C43.5078 374.057 43.5391 374.219 43.6016 374.35C43.6641 374.48 43.7487 374.577 43.8555 374.641C43.9635 374.704 44.0853 374.736 44.2207 374.736C44.3561 374.736 44.4772 374.704 44.584 374.641C44.6908 374.577 44.7754 374.48 44.8379 374.35C44.9017 374.219 44.9336 374.057 44.9336 373.861V373.473ZM45.2949 373.861C45.2949 374.113 45.2507 374.327 45.1621 374.506C45.0736 374.684 44.9486 374.82 44.7871 374.914C44.627 375.008 44.4382 375.055 44.2207 375.055C44.002 375.055 43.8118 375.008 43.6504 374.914C43.4902 374.82 43.3659 374.684 43.2773 374.506C43.1901 374.327 43.1465 374.113 43.1465 373.861V373.475C43.1465 373.222 43.1901 373.007 43.2773 372.828C43.3659 372.65 43.4902 372.514 43.6504 372.42C43.8118 372.326 44.002 372.279 44.2207 372.279C44.4382 372.279 44.627 372.326 44.7871 372.42C44.9486 372.514 45.0736 372.65 45.1621 372.828C45.2507 373.007 45.2949 373.222 45.2949 373.475V373.861Z" fill="white"/>
<path d="M57.6191 372.334C57.7923 372.334 57.9427 372.37 58.0703 372.441C58.1979 372.512 58.2969 372.609 58.3672 372.734C58.4375 372.859 58.4727 373.005 58.4727 373.17C58.4727 373.334 58.4375 373.479 58.3672 373.605C58.2969 373.73 58.1973 373.828 58.0684 373.898C57.9408 373.969 57.7904 374.004 57.6172 374.004H56.998V375H56.6387V372.334H57.6191ZM58.1035 373.17C58.1035 373.003 58.0579 372.875 57.9668 372.785C57.877 372.694 57.75 372.648 57.5859 372.648H56.998V373.691H57.5859C57.6966 373.691 57.7897 373.671 57.8652 373.631C57.9421 373.589 58.0007 373.529 58.041 373.451C58.0827 373.373 58.1035 373.279 58.1035 373.17ZM61.0371 375H60.6777V373.779H59.3574V375H58.998V372.334H59.3574V373.463H60.6777V372.334H61.0371V375ZM63.457 373.473C63.457 373.276 63.4251 373.113 63.3613 372.984C63.2988 372.855 63.2142 372.759 63.1074 372.695C63.0007 372.63 62.8796 372.598 62.7441 372.598C62.6087 372.598 62.487 372.63 62.3789 372.695C62.2721 372.759 62.1875 372.855 62.125 372.984C62.0625 373.113 62.0312 373.276 62.0312 373.473V373.861C62.0312 374.057 62.0625 374.219 62.125 374.35C62.1875 374.48 62.2721 374.577 62.3789 374.641C62.487 374.704 62.6087 374.736 62.7441 374.736C62.8796 374.736 63.0007 374.704 63.1074 374.641C63.2142 374.577 63.2988 374.48 63.3613 374.35C63.4251 374.219 63.457 374.057 63.457 373.861V373.473ZM63.8184 373.861C63.8184 374.113 63.7741 374.327 63.6855 374.506C63.597 374.684 63.472 374.82 63.3105 374.914C63.1504 375.008 62.9616 375.055 62.7441 375.055C62.5254 375.055 62.3353 375.008 62.1738 374.914C62.0137 374.82 61.8893 374.684 61.8008 374.506C61.7135 374.327 61.6699 374.113 61.6699 373.861V373.475C61.6699 373.222 61.7135 373.007 61.8008 372.828C61.8893 372.65 62.0137 372.514 62.1738 372.42C62.3353 372.326 62.5254 372.279 62.7441 372.279C62.9616 372.279 63.1504 372.326 63.3105 372.42C63.472 372.514 63.597 372.65 63.6855 372.828C63.7741 373.007 63.8184 373.222 63.8184 373.475V373.861ZM65.248 375H64.8887V372.652H64.084V372.334H66.0508V372.652H65.248V375ZM68.1055 373.473C68.1055 373.276 68.0736 373.113 68.0098 372.984C67.9473 372.855 67.8626 372.759 67.7559 372.695C67.6491 372.63 67.528 372.598 67.3926 372.598C67.2572 372.598 67.1354 372.63 67.0273 372.695C66.9206 372.759 66.8359 372.855 66.7734 372.984C66.7109 373.113 66.6797 373.276 66.6797 373.473V373.861C66.6797 374.057 66.7109 374.219 66.7734 374.35C66.8359 374.48 66.9206 374.577 67.0273 374.641C67.1354 374.704 67.2572 374.736 67.3926 374.736C67.528 374.736 67.6491 374.704 67.7559 374.641C67.8626 374.577 67.9473 374.48 68.0098 374.35C68.0736 374.219 68.1055 374.057 68.1055 373.861V373.473ZM68.4668 373.861C68.4668 374.113 68.4225 374.327 68.334 374.506C68.2454 374.684 68.1204 374.82 67.959 374.914C67.7988 375.008 67.61 375.055 67.3926 375.055C67.1738 375.055 66.9837 375.008 66.8223 374.914C66.6621 374.82 66.5378 374.684 66.4492 374.506C66.362 374.327 66.3184 374.113 66.3184 373.861V373.475C66.3184 373.222 66.362 373.007 66.4492 372.828C66.5378 372.65 66.6621 372.514 66.8223 372.42C66.9837 372.326 67.1738 372.279 67.3926 372.279C67.61 372.279 67.7988 372.326 67.959 372.42C68.1204 372.514 68.2454 372.65 68.334 372.828C68.4225 373.007 68.4668 373.222 68.4668 373.475V373.861Z" fill="#FFD50B"/>
<path d="M80.416 372.334C80.5892 372.334 80.7396 372.37 80.8672 372.441C80.9948 372.512 81.0938 372.609 81.1641 372.734C81.2344 372.859 81.2695 373.005 81.2695 373.17C81.2695 373.334 81.2344 373.479 81.1641 373.605C81.0938 373.73 80.9941 373.828 80.8652 373.898C80.7376 373.969 80.5872 374.004 80.4141 374.004H79.7949V375H79.4355V372.334H80.416ZM80.9004 373.17C80.9004 373.003 80.8548 372.875 80.7637 372.785C80.6738 372.694 80.5469 372.648 80.3828 372.648H79.7949V373.691H80.3828C80.4935 373.691 80.5866 373.671 80.6621 373.631C80.7389 373.589 80.7975 373.529 80.8379 373.451C80.8796 373.373 80.9004 373.279 80.9004 373.17ZM83.4766 373.473C83.4766 373.276 83.4447 373.113 83.3809 372.984C83.3184 372.855 83.2337 372.759 83.127 372.695C83.0202 372.63 82.8991 372.598 82.7637 372.598C82.6283 372.598 82.5065 372.63 82.3984 372.695C82.2917 372.759 82.207 372.855 82.1445 372.984C82.082 373.113 82.0508 373.276 82.0508 373.473V373.861C82.0508 374.057 82.082 374.219 82.1445 374.35C82.207 374.48 82.2917 374.577 82.3984 374.641C82.5065 374.704 82.6283 374.736 82.7637 374.736C82.8991 374.736 83.0202 374.704 83.127 374.641C83.2337 374.577 83.3184 374.48 83.3809 374.35C83.4447 374.219 83.4766 374.057 83.4766 373.861V373.473ZM83.8379 373.861C83.8379 374.113 83.7936 374.327 83.7051 374.506C83.6165 374.684 83.4915 374.82 83.3301 374.914C83.1699 375.008 82.9811 375.055 82.7637 375.055C82.5449 375.055 82.3548 375.008 82.1934 374.914C82.0332 374.82 81.9089 374.684 81.8203 374.506C81.7331 374.327 81.6895 374.113 81.6895 373.861V373.475C81.6895 373.222 81.7331 373.007 81.8203 372.828C81.9089 372.65 82.0332 372.514 82.1934 372.42C82.3548 372.326 82.5449 372.279 82.7637 372.279C82.9811 372.279 83.1699 372.326 83.3301 372.42C83.4915 372.514 83.6165 372.65 83.7051 372.828C83.7936 373.007 83.8379 373.222 83.8379 373.475V373.861ZM85.4434 372.334C85.6217 372.334 85.7754 372.367 85.9043 372.434C86.0332 372.499 86.1328 372.591 86.2031 372.711C86.2734 372.831 86.3086 372.971 86.3086 373.133C86.3086 373.255 86.2878 373.366 86.2461 373.465C86.2044 373.562 86.1465 373.646 86.0723 373.717C85.998 373.787 85.9115 373.84 85.8125 373.877L86.3555 375H85.9473L85.457 373.945H84.8281V375H84.4707V372.334H85.4434ZM84.8281 373.637H85.3828C85.5625 373.637 85.6999 373.596 85.7949 373.514C85.89 373.432 85.9375 373.311 85.9375 373.152C85.9375 372.991 85.8893 372.867 85.793 372.779C85.6979 372.691 85.5658 372.646 85.3965 372.646H84.8281V373.637ZM87.8418 375H87.4824V372.652H86.6777V372.334H88.6445V372.652H87.8418V375ZM90.0801 372.334C90.2585 372.334 90.4121 372.367 90.541 372.434C90.6699 372.499 90.7695 372.591 90.8398 372.711C90.9102 372.831 90.9453 372.971 90.9453 373.133C90.9453 373.255 90.9245 373.366 90.8828 373.465C90.8411 373.562 90.7832 373.646 90.709 373.717C90.6348 373.787 90.5482 373.84 90.4492 373.877L90.9922 375H90.584L90.0938 373.945H89.4648V375H89.1074V372.334H90.0801ZM89.4648 373.637H90.0195C90.1992 373.637 90.3366 373.596 90.4316 373.514C90.5267 373.432 90.5742 373.311 90.5742 373.152C90.5742 372.991 90.526 372.867 90.4297 372.779C90.3346 372.691 90.2025 372.646 90.0332 372.646H89.4648V373.637ZM91.6953 375H91.3223L92.2656 372.334H92.6387L93.5801 375H93.2012L92.9395 374.211H91.957L91.6953 375ZM92.4551 372.746H92.4414L92.0508 373.924H92.8477L92.4551 372.746ZM94.4121 375H94.0527V372.334H94.4121V375ZM96.0371 375H95.6777V372.652H94.873V372.334H96.8398V372.652H96.0371V375Z" fill="white"/>
<path d="M106.766 372.334C106.939 372.334 107.089 372.37 107.217 372.441C107.344 372.512 107.443 372.609 107.514 372.734C107.584 372.859 107.619 373.005 107.619 373.17C107.619 373.334 107.584 373.479 107.514 373.605C107.443 373.73 107.344 373.828 107.215 373.898C107.087 373.969 106.937 374.004 106.764 374.004H106.145V375H105.785V372.334H106.766ZM107.25 373.17C107.25 373.003 107.204 372.875 107.113 372.785C107.023 372.694 106.896 372.648 106.732 372.648H106.145V373.691H106.732C106.843 373.691 106.936 373.671 107.012 373.631C107.089 373.589 107.147 373.529 107.188 373.451C107.229 373.373 107.25 373.279 107.25 373.17ZM108.15 375H107.777L108.721 372.334H109.094L110.035 375H109.656L109.395 374.211H108.412L108.15 375ZM108.91 372.746H108.896L108.506 373.924H109.303L108.91 372.746ZM110.861 375H110.508V372.334H110.848L112.166 374.385H112.184V372.334H112.537V375H112.197L110.875 372.947H110.861V375ZM114.959 373.473C114.959 373.276 114.927 373.113 114.863 372.984C114.801 372.855 114.716 372.759 114.609 372.695C114.503 372.63 114.382 372.598 114.246 372.598C114.111 372.598 113.989 372.63 113.881 372.695C113.774 372.759 113.689 372.855 113.627 372.984C113.564 373.113 113.533 373.276 113.533 373.473V373.861C113.533 374.057 113.564 374.219 113.627 374.35C113.689 374.48 113.774 374.577 113.881 374.641C113.989 374.704 114.111 374.736 114.246 374.736C114.382 374.736 114.503 374.704 114.609 374.641C114.716 374.577 114.801 374.48 114.863 374.35C114.927 374.219 114.959 374.057 114.959 373.861V373.473ZM115.32 373.861C115.32 374.113 115.276 374.327 115.188 374.506C115.099 374.684 114.974 374.82 114.812 374.914C114.652 375.008 114.464 375.055 114.246 375.055C114.027 375.055 113.837 375.008 113.676 374.914C113.516 374.82 113.391 374.684 113.303 374.506C113.215 374.327 113.172 374.113 113.172 373.861V373.475C113.172 373.222 113.215 373.007 113.303 372.828C113.391 372.65 113.516 372.514 113.676 372.42C113.837 372.326 114.027 372.279 114.246 372.279C114.464 372.279 114.652 372.326 114.812 372.42C114.974 372.514 115.099 372.65 115.188 372.828C115.276 373.007 115.32 373.222 115.32 373.475V373.861Z" fill="white"/>
<path d="M53.92 431.408H53.112L53.208 431.08H53.92V430.632C53.92 430.301 54.0853 430.04 54.416 429.848C54.752 429.656 55.2133 429.56 55.8 429.56C56.36 429.56 56.8347 429.637 57.224 429.792V435H56.496V430.032C56.24 429.947 55.9813 429.904 55.72 429.904C55.3947 429.904 55.136 429.965 54.944 430.088C54.752 430.205 54.656 430.365 54.656 430.568V431.08H55.744L55.656 431.408H54.656V435H53.92V431.408ZM59.0962 430.592C58.9362 430.592 58.8055 430.547 58.7042 430.456C58.6029 430.365 58.5522 430.245 58.5522 430.096C58.5522 429.947 58.6029 429.827 58.7042 429.736C58.8055 429.645 58.9362 429.6 59.0962 429.6C59.2562 429.6 59.3869 429.645 59.4882 429.736C59.5895 429.827 59.6402 429.947 59.6402 430.096C59.6402 430.245 59.5895 430.365 59.4882 430.456C59.3869 430.547 59.2562 430.592 59.0962 430.592ZM58.7282 431.08H59.4642V435H58.7282V431.08ZM64.1871 434.24C64.0325 434.512 63.8191 434.72 63.5471 434.864C63.2751 435.008 62.9578 435.08 62.5951 435.08C61.9765 435.08 61.4885 434.899 61.1311 434.536C60.7738 434.168 60.5951 433.664 60.5951 433.024C60.5951 432.395 60.7711 431.901 61.1231 431.544C61.4805 431.181 61.9711 431 62.5951 431C62.9471 431 63.2618 431.072 63.5391 431.216C63.8165 431.36 64.0325 431.557 64.1871 431.808V431.08H64.9231V436.52H64.1871V434.24ZM62.7631 434.76C63.1951 434.76 63.5391 434.605 63.7951 434.296C64.0565 433.981 64.1871 433.565 64.1871 433.048C64.1871 432.707 64.1258 432.405 64.0031 432.144C63.8858 431.883 63.7151 431.68 63.4911 431.536C63.2725 431.392 63.0218 431.32 62.7391 431.32C62.3071 431.32 61.9631 431.472 61.7071 431.776C61.4565 432.075 61.3311 432.485 61.3311 433.008C61.3311 433.355 61.3898 433.661 61.5071 433.928C61.6245 434.189 61.7925 434.395 62.0111 434.544C62.2298 434.688 62.4805 434.76 62.7631 434.76ZM66.3006 435.08C66.1672 435.08 66.0579 435.04 65.9726 434.96C65.8926 434.875 65.8526 434.768 65.8526 434.64C65.8526 434.517 65.8952 434.416 65.9806 434.336C66.0659 434.251 66.1726 434.208 66.3006 434.208C66.4339 434.208 66.5432 434.251 66.6286 434.336C66.7139 434.416 66.7566 434.517 66.7566 434.64C66.7566 434.768 66.7139 434.875 66.6286 434.96C66.5432 435.04 66.4339 435.08 66.3006 435.08Z" fill="#FDFFFF"/>
<defs>
<clipPath id="clip0_539_3355">
<rect width="3.95122" height="3.95122" fill="white" transform="matrix(0 1 -1 0 62.9756 3.02466)"/>
</clipPath>
</defs>
</svg>
