<svg width="362" height="240" viewBox="0 0 362 240" fill="none" xmlns="http://www.w3.org/2000/svg">
<path d="M83.9556 124.913L79.0096 120.073M79.0096 120.073L83.9749 115.251M79.0096 120.073L90.9031 120.095" stroke="#333745" stroke-width="1.5" stroke-linecap="round" stroke-linejoin="round"/>
<path d="M83.9556 124.913L79.0096 120.073M79.0096 120.073L83.9749 115.251M79.0096 120.073L90.9031 120.095" stroke="#333745" stroke-width="1.5" stroke-linecap="round" stroke-linejoin="round"/>
<rect width="240" height="362" transform="matrix(0 -1 1 0 0 240)" fill="#604743"/>
<rect y="240" width="240" height="362" rx="2" transform="rotate(-90 0 240)" fill="#604743"/>
<rect x="14.7822" y="116.4" width="106" height="125" transform="rotate(-90 14.7822 116.4)" fill="#333745"/>
<rect x="151.781" y="115.876" width="106" height="125" transform="rotate(-90 151.781 115.876)" fill="#333745"/>
<rect x="15.2227" y="231.399" width="106" height="125" transform="rotate(-90 15.2227 231.399)" fill="#333745"/>
<rect x="152.222" y="230.875" width="106" height="125" transform="rotate(-90 152.222 230.875)" fill="#333745"/>
</svg>
