<svg width="362" height="240" viewBox="0 0 362 240" fill="none" xmlns="http://www.w3.org/2000/svg">
<g clip-path="url(#paint0_diamond_547_1237_clip_path)" data-figma-skip-parse="true"><g transform="matrix(-0.0095 0.1705 -0.257171 -0.0143292 181 120)"><rect x="0" y="0" width="766.774" height="731.645" fill="url(#paint0_diamond_547_1237)" opacity="1" shape-rendering="crispEdges"/><rect x="0" y="0" width="766.774" height="731.645" transform="scale(1 -1)" fill="url(#paint0_diamond_547_1237)" opacity="1" shape-rendering="crispEdges"/><rect x="0" y="0" width="766.774" height="731.645" transform="scale(-1 1)" fill="url(#paint0_diamond_547_1237)" opacity="1" shape-rendering="crispEdges"/><rect x="0" y="0" width="766.774" height="731.645" transform="scale(-1)" fill="url(#paint0_diamond_547_1237)" opacity="1" shape-rendering="crispEdges"/></g></g><rect y="240" width="240" height="362" rx="2" transform="rotate(-90 0 240)" data-figma-gradient-fill="{&#34;type&#34;:&#34;GRADIENT_DIAMOND&#34;,&#34;stops&#34;:[{&#34;color&#34;:{&#34;r&#34;:0.65882354974746704,&#34;g&#34;:0.71372550725936890,&#34;b&#34;:0.74509805440902710,&#34;a&#34;:1.0},&#34;position&#34;:0.44230768084526062},{&#34;color&#34;:{&#34;r&#34;:0.40392157435417175,&#34;g&#34;:0.49803921580314636,&#34;b&#34;:0.55294120311737061,&#34;a&#34;:1.0},&#34;position&#34;:1.0}],&#34;stopsVar&#34;:[{&#34;color&#34;:{&#34;r&#34;:0.65882354974746704,&#34;g&#34;:0.71372550725936890,&#34;b&#34;:0.74509805440902710,&#34;a&#34;:1.0},&#34;position&#34;:0.44230768084526062},{&#34;color&#34;:{&#34;r&#34;:0.40392157435417175,&#34;g&#34;:0.49803921580314636,&#34;b&#34;:0.55294120311737061,&#34;a&#34;:1.0},&#34;position&#34;:1.0}],&#34;transform&#34;:{&#34;m00&#34;:-19.0,&#34;m01&#34;:-514.34167480468750,&#34;m02&#34;:447.67083740234375,&#34;m10&#34;:341.0,&#34;m11&#34;:-28.658332824707031,&#34;m12&#34;:-36.170833587646484},&#34;opacity&#34;:1.0,&#34;blendMode&#34;:&#34;NORMAL&#34;,&#34;visible&#34;:true}"/>
<rect x="13.7822" y="116.4" width="106" height="125" transform="rotate(-90 13.7822 116.4)" fill="#333745"/>
<rect x="150.781" y="115.876" width="106" height="125" transform="rotate(-90 150.781 115.876)" fill="#333745"/>
<rect x="14.2227" y="231.399" width="106" height="125" transform="rotate(-90 14.2227 231.399)" fill="#333745"/>
<rect x="151.222" y="230.875" width="106" height="125" transform="rotate(-90 151.222 230.875)" fill="#333745"/>
<defs>
<clipPath id="paint0_diamond_547_1237_clip_path"><rect y="240" width="240" height="362" rx="2" transform="rotate(-90 0 240)"/></clipPath><linearGradient id="paint0_diamond_547_1237" x1="0" y1="0" x2="500" y2="500" gradientUnits="userSpaceOnUse">
<stop offset="0.442308" stop-color="#A8B6BE"/>
<stop offset="1" stop-color="#677F8D"/>
</linearGradient>
</defs>
</svg>
