<svg width="362" height="240" viewBox="0 0 362 240" fill="none" xmlns="http://www.w3.org/2000/svg">
<ellipse cx="311.005" cy="119.472" rx="7.68462" ry="7.68519" transform="rotate(-90 311.005 119.472)" fill="white"/>
<path d="M311.006 109.472C316.529 109.472 321.006 113.949 321.006 119.471C321.006 124.994 316.529 129.471 311.006 129.471C305.483 129.471 301.006 124.994 301.006 119.471C301.006 113.949 305.483 109.472 311.006 109.472ZM311.006 128.226C315.841 128.226 319.761 124.306 319.761 119.471C319.761 114.636 315.841 110.717 311.006 110.717C306.17 110.717 302.251 114.636 302.251 119.471C302.251 124.306 306.17 128.226 311.006 128.226Z" fill="white"/>
<rect x="300.997" y="220.429" width="14" height="14" rx="3" transform="rotate(-90 300.997 220.429)" fill="white"/>
<circle cx="312.504" cy="25.9824" r="6.5" transform="rotate(-90 312.504 25.9824)" fill="black" fill-opacity="0.35"/>
<path d="M313.82 22.8515C314.486 23.0631 315.053 23.5646 315.41 24.257C315.767 24.9494 315.887 25.7822 315.747 26.5909C315.608 27.3996 315.218 28.1254 314.655 28.6248C314.092 29.1243 313.397 29.361 312.707 29.2883L312.742 28.9296C313.356 28.9943 313.975 28.7836 314.476 28.339C314.978 27.8944 315.325 27.2483 315.449 26.5284C315.574 25.8084 315.466 25.067 315.149 24.4506C314.831 23.8343 314.326 23.3878 313.733 23.1994L313.82 22.8515Z" fill="white"/>
<path d="M311.727 29.0302L312.792 28.4244L312.677 29.803L311.727 29.0302Z" fill="white"/>
<path d="M311.188 29.2012C310.522 28.9896 309.955 28.4881 309.598 27.7957C309.241 27.1033 309.121 26.2705 309.26 25.4618C309.4 24.6531 309.79 23.9273 310.353 23.4279C310.916 22.9285 311.611 22.6917 312.301 22.7645L312.265 23.1231C311.651 23.0584 311.033 23.2691 310.531 23.7137C310.03 24.1583 309.683 24.8044 309.559 25.5244C309.434 26.2443 309.541 26.9857 309.859 27.6021C310.177 28.2184 310.682 28.6649 311.275 28.8533L311.188 29.2012Z" fill="white"/>
<path d="M313.281 23.0225L312.216 23.6284L312.33 22.2497L313.281 23.0225Z" fill="white"/>
<path d="M288.351 223.882H289.011C289.334 223.882 289.61 223.834 289.838 223.739C290.066 223.643 290.24 223.504 290.361 223.322C290.479 223.139 290.539 222.918 290.539 222.659C290.539 222.458 290.503 222.28 290.433 222.125C290.362 221.971 290.264 221.845 290.139 221.75C290.011 221.652 289.865 221.592 289.701 221.572V220.95C289.706 220.95 289.71 220.95 289.715 220.95C289.717 220.95 289.719 220.95 289.722 220.95C289.986 220.972 290.222 221.061 290.429 221.216C290.637 221.369 290.799 221.571 290.918 221.821C291.036 222.07 291.096 222.35 291.096 222.662C291.096 223.056 291.015 223.392 290.853 223.67C290.689 223.946 290.452 224.156 290.142 224.299C289.832 224.443 289.457 224.515 289.018 224.515H288.344C287.904 224.515 287.527 224.442 287.213 224.296C286.898 224.15 286.658 223.938 286.492 223.66C286.323 223.382 286.239 223.049 286.239 222.662C286.239 222.427 286.274 222.21 286.345 222.009C286.415 221.809 286.516 221.632 286.646 221.479C286.775 221.327 286.928 221.205 287.104 221.114C287.279 221.02 287.473 220.966 287.685 220.95C287.687 220.95 287.69 220.95 287.695 220.95C287.697 220.95 287.701 220.95 287.705 220.95V221.572C287.527 221.592 287.371 221.652 287.237 221.75C287.1 221.847 286.993 221.975 286.916 222.132C286.836 222.287 286.796 222.463 286.796 222.659C286.796 222.914 286.859 223.133 286.984 223.315C287.107 223.497 287.285 223.637 287.517 223.735C287.747 223.833 288.025 223.882 288.351 223.882ZM291 219.237V219.866H286.334V219.237H291ZM291 217.327V217.945H286.334V217.351L289.923 215.043V215.013H286.334V214.394H291V214.989L287.408 217.303V217.327H291ZM290.446 210.279H291V213.099H286.334V210.279H286.888V212.473H288.351V210.402H288.891V212.473H290.446V210.279ZM291 208.57V209.141H286.334V208.522L289.91 207.001V206.98L286.334 205.463V204.848H291V205.418H287.609V205.453L290.59 206.738V207.25L287.609 208.539V208.57H291ZM291 203.354V204.007L286.334 202.356V201.703L291 200.056V200.719L289.619 201.177V202.896L291 203.354ZM287.056 202.024V202.048L289.117 202.732V201.337L287.056 202.024ZM291 197.978V198.606H286.892V200.015H286.334V196.573H286.892V197.978H291ZM291 195.134V195.763H286.334V195.134H291ZM288.351 193.394H289.011C289.334 193.394 289.61 193.346 289.838 193.25C290.066 193.155 290.24 193.016 290.361 192.833C290.479 192.651 290.539 192.43 290.539 192.17C290.539 191.97 290.503 191.792 290.433 191.637C290.362 191.482 290.264 191.357 290.139 191.261C290.011 191.163 289.865 191.104 289.701 191.083V190.461C289.706 190.461 289.71 190.461 289.715 190.461C289.717 190.461 289.719 190.461 289.722 190.461C289.986 190.484 290.222 190.573 290.429 190.728C290.637 190.881 290.799 191.082 290.918 191.333C291.036 191.581 291.096 191.862 291.096 192.174C291.096 192.568 291.015 192.904 290.853 193.182C290.689 193.458 290.452 193.667 290.142 193.811C289.832 193.955 289.457 194.026 289.018 194.026H288.344C287.904 194.026 287.527 193.953 287.213 193.808C286.898 193.662 286.658 193.45 286.492 193.172C286.323 192.894 286.239 192.561 286.239 192.174C286.239 191.939 286.274 191.722 286.345 191.521C286.415 191.32 286.516 191.144 286.646 190.991C286.775 190.839 286.928 190.717 287.104 190.625C287.279 190.532 287.473 190.477 287.685 190.461C287.687 190.461 287.69 190.461 287.695 190.461C287.697 190.461 287.701 190.461 287.705 190.461V191.083C287.527 191.104 287.371 191.163 287.237 191.261C287.1 191.359 286.993 191.487 286.916 191.644C286.836 191.799 286.796 191.974 286.796 192.17C286.796 192.426 286.859 192.644 286.984 192.827C287.107 193.009 287.285 193.149 287.517 193.247C287.747 193.345 288.025 193.394 288.351 193.394Z" fill="white"/>
<path d="M291 166.909L286.334 168.581V167.863L290.262 166.591V166.557L286.334 165.289V164.578L291 166.25V166.909ZM291 163.153V163.782H286.334V163.153H291ZM286.334 161.861V160.343C286.334 159.89 286.423 159.512 286.601 159.208C286.777 158.903 287.037 158.674 287.384 158.521C287.73 158.367 288.157 158.289 288.666 158.289C289.171 158.289 289.599 158.367 289.947 158.521C290.294 158.674 290.556 158.903 290.733 159.208C290.911 159.512 291 159.89 291 160.343V161.861H286.334ZM286.885 161.232H290.446V160.388C290.446 160.146 290.41 159.934 290.337 159.752C290.262 159.57 290.15 159.419 290.002 159.301C289.854 159.182 289.669 159.093 289.448 159.034C289.227 158.973 288.967 158.942 288.669 158.942C288.272 158.942 287.942 158.995 287.678 159.103C287.413 159.207 287.215 159.367 287.083 159.581C286.951 159.795 286.885 160.064 286.885 160.388V161.232ZM290.446 154.434H291V157.253H286.334V154.434H286.888V156.628H288.351V154.557H288.891V156.628H290.446V154.434ZM288.327 150.366C287.983 150.366 287.698 150.422 287.473 150.534C287.247 150.643 287.078 150.791 286.967 150.978C286.853 151.165 286.796 151.377 286.796 151.614C286.796 151.851 286.853 152.064 286.967 152.253C287.078 152.44 287.247 152.588 287.473 152.697C287.698 152.807 287.983 152.861 288.327 152.861H289.007C289.349 152.861 289.634 152.807 289.862 152.697C290.09 152.588 290.259 152.44 290.371 152.253C290.483 152.064 290.539 151.851 290.539 151.614C290.539 151.377 290.483 151.165 290.371 150.978C290.259 150.791 290.09 150.643 289.862 150.534C289.634 150.422 289.349 150.366 289.007 150.366H288.327ZM289.007 149.734C289.447 149.734 289.823 149.811 290.135 149.966C290.447 150.121 290.686 150.34 290.85 150.623C291.014 150.903 291.096 151.233 291.096 151.614C291.096 151.997 291.014 152.329 290.85 152.612C290.686 152.892 290.447 153.11 290.135 153.265C289.823 153.417 289.447 153.494 289.007 153.494H288.331C287.889 153.494 287.511 153.417 287.199 153.265C286.887 153.11 286.649 152.892 286.485 152.612C286.321 152.329 286.239 151.997 286.239 151.614C286.239 151.233 286.321 150.903 286.485 150.623C286.649 150.34 286.887 150.121 287.199 149.966C287.511 149.811 287.889 149.734 288.331 149.734H289.007Z" fill="white"/>
<path d="M286.334 125.542C286.334 125.238 286.397 124.975 286.522 124.752C286.646 124.529 286.816 124.355 287.035 124.232C287.254 124.109 287.508 124.048 287.797 124.048C288.084 124.048 288.339 124.109 288.56 124.232C288.778 124.355 288.949 124.53 289.072 124.755C289.195 124.979 289.257 125.242 289.257 125.545V126.628H291V127.257H286.334V125.542ZM287.797 124.694C287.506 124.694 287.281 124.774 287.124 124.933C286.965 125.09 286.885 125.312 286.885 125.6V126.628H288.71V125.6C288.71 125.406 288.675 125.243 288.604 125.111C288.531 124.976 288.426 124.874 288.29 124.803C288.153 124.73 287.989 124.694 287.797 124.694ZM291 119.56V120.189H288.864V122.5H291V123.128H286.334V122.5H288.31V120.189H286.334V119.56H291ZM288.327 115.325C287.983 115.325 287.698 115.381 287.473 115.493C287.247 115.602 287.078 115.75 286.967 115.937C286.853 116.124 286.796 116.336 286.796 116.573C286.796 116.81 286.853 117.023 286.967 117.212C287.078 117.399 287.247 117.547 287.473 117.656C287.698 117.766 287.983 117.82 288.327 117.82H289.007C289.349 117.82 289.634 117.766 289.862 117.656C290.09 117.547 290.259 117.399 290.371 117.212C290.483 117.023 290.539 116.81 290.539 116.573C290.539 116.336 290.483 116.124 290.371 115.937C290.259 115.75 290.09 115.602 289.862 115.493C289.634 115.381 289.349 115.325 289.007 115.325H288.327ZM289.007 114.693C289.447 114.693 289.823 114.77 290.135 114.925C290.447 115.08 290.686 115.299 290.85 115.582C291.014 115.862 291.096 116.192 291.096 116.573C291.096 116.956 291.014 117.288 290.85 117.571C290.686 117.851 290.447 118.069 290.135 118.224C289.823 118.376 289.447 118.453 289.007 118.453H288.331C287.889 118.453 287.511 118.376 287.199 118.224C286.887 118.069 286.649 117.851 286.485 117.571C286.321 117.288 286.239 116.956 286.239 116.573C286.239 116.192 286.321 115.862 286.485 115.582C286.649 115.299 286.887 115.08 287.199 114.925C287.511 114.77 287.889 114.693 288.331 114.693H289.007ZM291 112.191V112.82H286.892V114.228H286.334V110.786H286.892V112.191H291ZM288.327 107.19C287.983 107.19 287.698 107.246 287.473 107.358C287.247 107.467 287.078 107.615 286.967 107.802C286.853 107.989 286.796 108.201 286.796 108.438C286.796 108.675 286.853 108.888 286.967 109.077C287.078 109.264 287.247 109.412 287.473 109.521C287.698 109.631 287.983 109.686 288.327 109.686H289.007C289.349 109.686 289.634 109.631 289.862 109.521C290.09 109.412 290.259 109.264 290.371 109.077C290.483 108.888 290.539 108.675 290.539 108.438C290.539 108.201 290.483 107.989 290.371 107.802C290.259 107.615 290.09 107.467 289.862 107.358C289.634 107.246 289.349 107.19 289.007 107.19H288.327ZM289.007 106.558C289.447 106.558 289.823 106.636 290.135 106.791C290.447 106.945 290.686 107.164 290.85 107.447C291.014 107.727 291.096 108.057 291.096 108.438C291.096 108.821 291.014 109.153 290.85 109.436C290.686 109.716 290.447 109.934 290.135 110.089C289.823 110.242 289.447 110.318 289.007 110.318H288.331C287.889 110.318 287.511 110.242 287.199 110.089C286.887 109.934 286.649 109.716 286.485 109.436C286.321 109.153 286.239 108.821 286.239 108.438C286.239 108.057 286.321 107.727 286.485 107.447C286.649 107.164 286.887 106.945 287.199 106.791C287.511 106.636 287.889 106.558 288.331 106.558H289.007Z" fill="#FFD50B"/>
<path d="M286.334 86.272C286.334 85.9689 286.397 85.7057 286.522 85.4824C286.646 85.2591 286.816 85.0859 287.035 84.9629C287.254 84.8398 287.508 84.7783 287.797 84.7783C288.084 84.7783 288.339 84.8398 288.56 84.9629C288.778 85.0859 288.949 85.2603 289.072 85.4858C289.195 85.7091 289.257 85.9723 289.257 86.2754V87.3589H291V87.9878H286.334V86.272ZM287.797 85.4243C287.506 85.4243 287.281 85.5041 287.124 85.6636C286.965 85.8208 286.885 86.043 286.885 86.3301V87.3589H288.71V86.3301C288.71 86.1364 288.675 85.9735 288.604 85.8413C288.531 85.7069 288.426 85.6043 288.29 85.5337C288.153 85.4608 287.989 85.4243 287.797 85.4243ZM288.327 80.916C287.983 80.916 287.698 80.9718 287.473 81.0835C287.247 81.1929 287.078 81.341 286.967 81.5278C286.853 81.7147 286.796 81.9266 286.796 82.1636C286.796 82.4006 286.853 82.6136 286.967 82.8027C287.078 82.9896 287.247 83.1377 287.473 83.2471C287.698 83.3564 287.983 83.4111 288.327 83.4111H289.007C289.349 83.4111 289.634 83.3564 289.862 83.2471C290.09 83.1377 290.259 82.9896 290.371 82.8027C290.483 82.6136 290.539 82.4006 290.539 82.1636C290.539 81.9266 290.483 81.7147 290.371 81.5278C290.259 81.341 290.09 81.1929 289.862 81.0835C289.634 80.9718 289.349 80.916 289.007 80.916H288.327ZM289.007 80.2837C289.447 80.2837 289.823 80.3612 290.135 80.5161C290.447 80.6711 290.686 80.8898 290.85 81.1724C291.014 81.4526 291.096 81.783 291.096 82.1636C291.096 82.5464 291.014 82.8791 290.85 83.1616C290.686 83.4419 290.447 83.6595 290.135 83.8145C289.823 83.9671 289.447 84.0435 289.007 84.0435H288.331C287.889 84.0435 287.511 83.9671 287.199 83.8145C286.887 83.6595 286.649 83.4419 286.485 83.1616C286.321 82.8791 286.239 82.5464 286.239 82.1636C286.239 81.783 286.321 81.4526 286.485 81.1724C286.649 80.8898 286.887 80.6711 287.199 80.5161C287.511 80.3612 287.889 80.2837 288.331 80.2837H289.007ZM286.334 77.4741C286.334 77.1619 286.393 76.8931 286.509 76.6675C286.623 76.4419 286.785 76.2676 286.994 76.1445C287.204 76.0215 287.45 75.96 287.732 75.96C287.947 75.96 288.14 75.9964 288.313 76.0693C288.484 76.1423 288.631 76.2437 288.754 76.3735C288.877 76.5034 288.971 76.6549 289.035 76.8281L291 75.8779V76.5923L289.154 77.4502V78.5508H291V79.1763H286.334V77.4741ZM288.614 78.5508V77.5801C288.614 77.2656 288.542 77.0252 288.399 76.8589C288.255 76.6925 288.045 76.6094 287.767 76.6094C287.484 76.6094 287.266 76.6937 287.114 76.8623C286.959 77.0286 286.881 77.2599 286.881 77.5562V78.5508H288.614ZM291 73.2769V73.9058H286.892V75.314H286.334V71.8721H286.892V73.2769H291ZM286.334 69.3599C286.334 69.0477 286.393 68.7788 286.509 68.5532C286.623 68.3276 286.785 68.1533 286.994 68.0303C287.204 67.9072 287.45 67.8457 287.732 67.8457C287.947 67.8457 288.14 67.8822 288.313 67.9551C288.484 68.028 288.631 68.1294 288.754 68.2593C288.877 68.3892 288.971 68.5407 289.035 68.7139L291 67.7637V68.478L289.154 69.3359V70.4365H291V71.062H286.334V69.3599ZM288.614 70.4365V69.4658C288.614 69.1514 288.542 68.911 288.399 68.7446C288.255 68.5783 288.045 68.4951 287.767 68.4951C287.484 68.4951 287.266 68.5794 287.114 68.748C286.959 68.9144 286.881 69.1457 286.881 69.4419V70.4365H288.614ZM291 66.5332V67.186L286.334 65.5352V64.8823L291 63.2349V63.8979L289.619 64.356V66.0752L291 66.5332ZM287.056 65.2036V65.2275L289.117 65.9111V64.5166L287.056 65.2036ZM291 61.7788V62.4077H286.334V61.7788H291ZM291 58.9351V59.564H286.892V60.9722H286.334V57.5303H286.892V58.9351H291Z" fill="white"/>
<path d="M286.334 33.5352C286.334 33.2321 286.397 32.9689 286.522 32.7456C286.646 32.5223 286.816 32.3491 287.035 32.2261C287.254 32.103 287.508 32.0415 287.797 32.0415C288.084 32.0415 288.339 32.103 288.56 32.2261C288.778 32.3491 288.949 32.5234 289.072 32.749C289.195 32.9723 289.257 33.2355 289.257 33.5386V34.6221H291V35.251H286.334V33.5352ZM287.797 32.6875C287.506 32.6875 287.281 32.7673 287.124 32.9268C286.965 33.084 286.885 33.3062 286.885 33.5933V34.6221H288.71V33.5933C288.71 33.3996 288.675 33.2367 288.604 33.1045C288.531 32.9701 288.426 32.8675 288.29 32.7969C288.153 32.724 287.989 32.6875 287.797 32.6875ZM291 31.1118V31.7646L286.334 30.1138V29.4609L291 27.8135V28.4766L289.619 28.9346V30.6538L291 31.1118ZM287.056 29.7822V29.8062L289.117 30.4897V29.0952L287.056 29.7822ZM291 26.3677V26.9863H286.334V26.3916L289.923 24.0845V24.0537H286.334V23.4351H291V24.0298L287.408 26.3438V26.3677H291ZM288.327 19.1968C287.983 19.1968 287.698 19.2526 287.473 19.3643C287.247 19.4736 287.078 19.6217 286.967 19.8086C286.853 19.9954 286.796 20.2074 286.796 20.4443C286.796 20.6813 286.853 20.8944 286.967 21.0835C287.078 21.2703 287.247 21.4185 287.473 21.5278C287.698 21.6372 287.983 21.6919 288.327 21.6919H289.007C289.349 21.6919 289.634 21.6372 289.862 21.5278C290.09 21.4185 290.259 21.2703 290.371 21.0835C290.483 20.8944 290.539 20.6813 290.539 20.4443C290.539 20.2074 290.483 19.9954 290.371 19.8086C290.259 19.6217 290.09 19.4736 289.862 19.3643C289.634 19.2526 289.349 19.1968 289.007 19.1968H288.327ZM289.007 18.5645C289.447 18.5645 289.823 18.6419 290.135 18.7969C290.447 18.9518 290.686 19.1706 290.85 19.4531C291.014 19.7334 291.096 20.0638 291.096 20.4443C291.096 20.8271 291.014 21.1598 290.85 21.4424C290.686 21.7227 290.447 21.9403 290.135 22.0952C289.823 22.2479 289.447 22.3242 289.007 22.3242H288.331C287.889 22.3242 287.511 22.2479 287.199 22.0952C286.887 21.9403 286.649 21.7227 286.485 21.4424C286.321 21.1598 286.239 20.8271 286.239 20.4443C286.239 20.0638 286.321 19.7334 286.485 19.4531C286.649 19.1706 286.887 18.9518 287.199 18.7969C287.511 18.6419 287.889 18.5645 288.331 18.5645H289.007Z" fill="white"/>
<circle cx="8" cy="8" r="3" fill="black"/>
<path d="M9.875 8C9.875 9.03553 9.03553 9.875 8 9.875C6.96447 9.875 6.125 9.03553 6.125 8C6.125 6.96447 6.96447 6.125 8 6.125C9.03553 6.125 9.875 6.96447 9.875 8ZM6.29439 8C6.29439 8.94198 7.05802 9.70561 8 9.70561C8.94198 9.70561 9.70561 8.94198 9.70561 8C9.70561 7.05802 8.94198 6.29439 8 6.29439C7.05802 6.29439 6.29439 7.05802 6.29439 8Z" fill="white"/>
<circle cx="7.9999" cy="7.9999" r="0.975" fill="white"/>
<mask id="path-17-inside-1_539_3398" fill="white">
<path d="M11 8C11 9.65685 9.65685 11 8 11C6.34315 11 5 9.65685 5 8C5 6.34315 6.34315 5 8 5C9.65685 5 11 6.34315 11 8ZM5.27103 8C5.27103 9.50717 6.49283 10.729 8 10.729C9.50717 10.729 10.729 9.50717 10.729 8C10.729 6.49283 9.50717 5.27103 8 5.27103C6.49283 5.27103 5.27103 6.49283 5.27103 8Z"/>
</mask>
<path d="M11 8C11 9.65685 9.65685 11 8 11C6.34315 11 5 9.65685 5 8C5 6.34315 6.34315 5 8 5C9.65685 5 11 6.34315 11 8ZM5.27103 8C5.27103 9.50717 6.49283 10.729 8 10.729C9.50717 10.729 10.729 9.50717 10.729 8C10.729 6.49283 9.50717 5.27103 8 5.27103C6.49283 5.27103 5.27103 6.49283 5.27103 8Z" fill="white" fill-opacity="0.5" stroke="#9C9C9C" stroke-width="1.5" mask="url(#path-17-inside-1_539_3398)"/>
<circle cx="7" cy="120" r="3" transform="rotate(-90 7 120)" fill="#21201E"/>
<g clip-path="url(#clip0_539_3398)">
<path d="M7.65855 121.646L6.01221 120L7.65855 118.354L7.95077 118.646L6.59666 120L7.95077 121.354L7.65855 121.646Z" fill="#F8F8F8"/>
</g>
<circle cx="7" cy="231" r="3" transform="rotate(-90 7 231)" fill="#9C9C9C"/>
<circle cx="7.00015" cy="231" r="2.61538" transform="rotate(-90 7.00015 231)" fill="#050402"/>
<path d="M7.40222 231.266L7.25021 231.987L5.44328 230.552L6.59742 230.795L6.74942 230.074L8.55636 231.509L7.40222 231.266Z" fill="#F8F8F8"/>
<path d="M340.92 223.408H340.112L340.208 223.08H340.92V222.632C340.92 222.301 341.085 222.04 341.416 221.848C341.752 221.656 342.213 221.56 342.8 221.56C343.36 221.56 343.835 221.637 344.224 221.792V227H343.496V222.032C343.24 221.947 342.981 221.904 342.72 221.904C342.395 221.904 342.136 221.965 341.944 222.088C341.752 222.205 341.656 222.365 341.656 222.568V223.08H342.744L342.656 223.408H341.656V227H340.92V223.408ZM346.096 222.592C345.936 222.592 345.806 222.547 345.704 222.456C345.603 222.365 345.552 222.245 345.552 222.096C345.552 221.947 345.603 221.827 345.704 221.736C345.806 221.645 345.936 221.6 346.096 221.6C346.256 221.6 346.387 221.645 346.488 221.736C346.59 221.827 346.64 221.947 346.64 222.096C346.64 222.245 346.59 222.365 346.488 222.456C346.387 222.547 346.256 222.592 346.096 222.592ZM345.728 223.08H346.464V227H345.728V223.08ZM351.187 226.24C351.032 226.512 350.819 226.72 350.547 226.864C350.275 227.008 349.958 227.08 349.595 227.08C348.976 227.08 348.488 226.899 348.131 226.536C347.774 226.168 347.595 225.664 347.595 225.024C347.595 224.395 347.771 223.901 348.123 223.544C348.48 223.181 348.971 223 349.595 223C349.947 223 350.262 223.072 350.539 223.216C350.816 223.36 351.032 223.557 351.187 223.808V223.08H351.923V228.52H351.187V226.24ZM349.763 226.76C350.195 226.76 350.539 226.605 350.795 226.296C351.056 225.981 351.187 225.565 351.187 225.048C351.187 224.707 351.126 224.405 351.003 224.144C350.886 223.883 350.715 223.68 350.491 223.536C350.272 223.392 350.022 223.32 349.739 223.32C349.307 223.32 348.963 223.472 348.707 223.776C348.456 224.075 348.331 224.485 348.331 225.008C348.331 225.355 348.39 225.661 348.507 225.928C348.624 226.189 348.792 226.395 349.011 226.544C349.23 226.688 349.48 226.76 349.763 226.76ZM353.301 227.08C353.167 227.08 353.058 227.04 352.973 226.96C352.893 226.875 352.853 226.768 352.853 226.64C352.853 226.517 352.895 226.416 352.981 226.336C353.066 226.251 353.173 226.208 353.301 226.208C353.434 226.208 353.543 226.251 353.629 226.336C353.714 226.416 353.757 226.517 353.757 226.64C353.757 226.768 353.714 226.875 353.629 226.96C353.543 227.04 353.434 227.08 353.301 227.08Z" fill="#FDFFFF"/>
<defs>
<clipPath id="clip0_539_3398">
<rect width="3.95122" height="3.95122" fill="white" transform="translate(5.02441 118.024)"/>
</clipPath>
</defs>
</svg>
