<svg width="120" height="362" viewBox="0 0 120 362" fill="none" xmlns="http://www.w3.org/2000/svg">
<path d="M53.92 348.408H53.112L53.208 348.08H53.92V347.632C53.92 347.301 54.0853 347.04 54.416 346.848C54.752 346.656 55.2133 346.56 55.8 346.56C56.36 346.56 56.8347 346.637 57.224 346.792V352H56.496V347.032C56.24 346.947 55.9813 346.904 55.72 346.904C55.3947 346.904 55.136 346.965 54.944 347.088C54.752 347.205 54.656 347.365 54.656 347.568V348.08H55.744L55.656 348.408H54.656V352H53.92V348.408ZM59.0962 347.592C58.9362 347.592 58.8055 347.547 58.7042 347.456C58.6029 347.365 58.5522 347.245 58.5522 347.096C58.5522 346.947 58.6029 346.827 58.7042 346.736C58.8055 346.645 58.9362 346.6 59.0962 346.6C59.2562 346.6 59.3869 346.645 59.4882 346.736C59.5895 346.827 59.6402 346.947 59.6402 347.096C59.6402 347.245 59.5895 347.365 59.4882 347.456C59.3869 347.547 59.2562 347.592 59.0962 347.592ZM58.7282 348.08H59.4642V352H58.7282V348.08ZM64.1871 351.24C64.0325 351.512 63.8191 351.72 63.5471 351.864C63.2751 352.008 62.9578 352.08 62.5951 352.08C61.9765 352.08 61.4885 351.899 61.1311 351.536C60.7738 351.168 60.5951 350.664 60.5951 350.024C60.5951 349.395 60.7711 348.901 61.1231 348.544C61.4805 348.181 61.9711 348 62.5951 348C62.9471 348 63.2618 348.072 63.5391 348.216C63.8165 348.36 64.0325 348.557 64.1871 348.808V348.08H64.9231V353.52H64.1871V351.24ZM62.7631 351.76C63.1951 351.76 63.5391 351.605 63.7951 351.296C64.0565 350.981 64.1871 350.565 64.1871 350.048C64.1871 349.707 64.1258 349.405 64.0031 349.144C63.8858 348.883 63.7151 348.68 63.4911 348.536C63.2725 348.392 63.0218 348.32 62.7391 348.32C62.3071 348.32 61.9631 348.472 61.7071 348.776C61.4565 349.075 61.3311 349.485 61.3311 350.008C61.3311 350.355 61.3898 350.661 61.5071 350.928C61.6245 351.189 61.7925 351.395 62.0111 351.544C62.2298 351.688 62.4805 351.76 62.7631 351.76ZM66.3006 352.08C66.1672 352.08 66.0579 352.04 65.9726 351.96C65.8926 351.875 65.8526 351.768 65.8526 351.64C65.8526 351.517 65.8952 351.416 65.9806 351.336C66.0659 351.251 66.1726 351.208 66.3006 351.208C66.4339 351.208 66.5432 351.251 66.6286 351.336C66.7139 351.416 66.7566 351.517 66.7566 351.64C66.7566 351.768 66.7139 351.875 66.6286 351.96C66.5432 352.04 66.4339 352.08 66.3006 352.08Z" fill="#FDFFFF"/>
<ellipse cx="59.9991" cy="302" rx="7.68462" ry="7.68519" fill="white"/>
<path d="M69.9985 302C69.9985 307.523 65.5217 312 59.9993 312C54.4768 312 50 307.523 50 302C50 296.477 54.4768 292 59.9993 292C65.5217 292 69.9985 296.477 69.9985 302ZM51.2446 302C51.2446 306.835 55.1642 310.755 59.9993 310.755C64.8343 310.755 68.7539 306.835 68.7539 302C68.7539 297.165 64.8343 293.245 59.9993 293.245C55.1642 293.245 51.2446 297.165 51.2446 302Z" fill="white"/>
<rect x="12" y="295" width="14" height="14" rx="3" fill="white"/>
<circle cx="100.5" cy="301.5" r="6.5" fill="black" fill-opacity="0.35"/>
<path d="M103.631 302.816C103.419 303.481 102.918 304.049 102.225 304.406C101.533 304.762 100.7 304.883 99.8915 304.743C99.0828 304.603 98.357 304.213 97.8576 303.65C97.3582 303.087 97.1214 302.392 97.1942 301.702L97.5528 301.738C97.4881 302.352 97.6988 302.971 98.1434 303.472C98.588 303.973 99.2341 304.32 99.9541 304.445C100.674 304.569 101.415 304.462 102.032 304.144C102.648 303.827 103.095 303.322 103.283 302.729L103.631 302.816Z" fill="white"/>
<path d="M97.4522 300.723L98.0581 301.788L96.6794 301.674L97.4522 300.723Z" fill="white"/>
<path d="M97.2812 300.184C97.4928 299.519 97.9944 298.951 98.6867 298.594C99.3791 298.238 100.212 298.117 101.021 298.257C101.829 298.397 102.555 298.787 103.055 299.35C103.554 299.913 103.791 300.608 103.718 301.298L103.359 301.262C103.424 300.648 103.213 300.029 102.769 299.528C102.324 299.027 101.678 298.68 100.958 298.555C100.238 298.431 99.4967 298.538 98.8804 298.856C98.264 299.173 97.8175 299.678 97.6291 300.271L97.2812 300.184Z" fill="white"/>
<path d="M103.46 302.277L102.854 301.212L104.233 301.326L103.46 302.277Z" fill="white"/>
<circle cx="107" cy="5" r="3" fill="black"/>
<path d="M108.875 5C108.875 6.03553 108.036 6.875 107 6.875C105.964 6.875 105.125 6.03553 105.125 5C105.125 3.96447 105.964 3.125 107 3.125C108.036 3.125 108.875 3.96447 108.875 5ZM105.294 5C105.294 5.94198 106.058 6.70561 107 6.70561C107.942 6.70561 108.706 5.94198 108.706 5C108.706 4.05802 107.942 3.29439 107 3.29439C106.058 3.29439 105.294 4.05802 105.294 5Z" fill="white"/>
<circle cx="107" cy="5.00002" r="0.975" fill="white"/>
<mask id="path-13-inside-1_537_3287" fill="white">
<path d="M110 5C110 6.65685 108.657 8 107 8C105.343 8 104 6.65685 104 5C104 3.34315 105.343 2 107 2C108.657 2 110 3.34315 110 5ZM104.271 5C104.271 6.50717 105.493 7.72897 107 7.72897C108.507 7.72897 109.729 6.50717 109.729 5C109.729 3.49283 108.507 2.27103 107 2.27103C105.493 2.27103 104.271 3.49283 104.271 5Z"/>
</mask>
<path d="M110 5C110 6.65685 108.657 8 107 8C105.343 8 104 6.65685 104 5C104 3.34315 105.343 2 107 2C108.657 2 110 3.34315 110 5ZM104.271 5C104.271 6.50717 105.493 7.72897 107 7.72897C108.507 7.72897 109.729 6.50717 109.729 5C109.729 3.49283 108.507 2.27103 107 2.27103C105.493 2.27103 104.271 3.49283 104.271 5Z" fill="white" fill-opacity="0.5" stroke="#9C9C9C" stroke-width="1.5" mask="url(#path-13-inside-1_537_3287)"/>
<circle cx="61" cy="5" r="3" fill="#21201E"/>
<g clip-path="url(#clip0_537_3287)">
<path d="M59.3538 5.65867L61.0001 4.01233L62.6465 5.65867L62.3543 5.9509L61.0001 4.59678L59.646 5.9509L59.3538 5.65867Z" fill="#F8F8F8"/>
</g>
<circle cx="13" cy="5" r="3" fill="#9C9C9C"/>
<circle cx="13.0002" cy="4.99991" r="2.61538" fill="#050402"/>
<path d="M12.7342 5.40222L12.0129 5.25021L13.4483 3.44328L13.2051 4.59742L13.9265 4.74942L12.491 6.55636L12.7342 5.40222Z" fill="#F8F8F8"/>
<path d="M5.63867 282.486V282.863C5.63867 283.048 5.66602 283.206 5.7207 283.336C5.77539 283.466 5.85482 283.566 5.95898 283.635C6.06315 283.702 6.18945 283.736 6.33789 283.736C6.45247 283.736 6.55404 283.716 6.64258 283.676C6.73112 283.635 6.80273 283.579 6.85742 283.508C6.91341 283.435 6.94727 283.352 6.95898 283.258H7.31445C7.31445 283.26 7.31445 283.263 7.31445 283.266C7.31445 283.267 7.31445 283.268 7.31445 283.27C7.30143 283.421 7.25065 283.555 7.16211 283.674C7.07487 283.792 6.95964 283.885 6.81641 283.953C6.67448 284.021 6.51432 284.055 6.33594 284.055C6.11068 284.055 5.91862 284.008 5.75977 283.916C5.60221 283.822 5.48242 283.687 5.40039 283.51C5.31836 283.333 5.27734 283.118 5.27734 282.867V282.482C5.27734 282.231 5.31901 282.016 5.40234 281.836C5.48568 281.656 5.60677 281.519 5.76562 281.424C5.92448 281.327 6.11458 281.279 6.33594 281.279C6.47005 281.279 6.5944 281.299 6.70898 281.34C6.82357 281.38 6.92448 281.438 7.01172 281.512C7.09896 281.586 7.16862 281.673 7.2207 281.773C7.27409 281.874 7.30534 281.984 7.31445 282.105C7.31445 282.107 7.31445 282.109 7.31445 282.111C7.31445 282.113 7.31445 282.115 7.31445 282.117H6.95898C6.94727 282.016 6.91341 281.926 6.85742 281.85C6.80143 281.771 6.72852 281.71 6.63867 281.666C6.55013 281.62 6.44987 281.598 6.33789 281.598C6.19206 281.598 6.06706 281.633 5.96289 281.705C5.85872 281.775 5.77865 281.877 5.72266 282.01C5.66667 282.141 5.63867 282.3 5.63867 282.486ZM8.29297 284H7.93359V281.334H8.29297V284ZM9.38477 284H9.03125V281.334H9.37109L10.6895 283.385H10.707V281.334H11.0605V284H10.7207L9.39844 281.947H9.38477V284ZM13.4121 283.684V284H11.8008V281.334H13.4121V281.65H12.1582V282.486H13.3418V282.795H12.1582V283.684H13.4121ZM14.3887 284H14.0625V281.334H14.416L15.2852 283.377H15.2969L16.1641 281.334H16.5156V284H16.1895V282.062H16.1699L15.4355 283.766H15.1426L14.4062 282.062H14.3887V284ZM17.3691 284H16.9961L17.9395 281.334H18.3125L19.2539 284H18.875L18.6133 283.211H17.6309L17.3691 284ZM18.1289 281.746H18.1152L17.7246 282.924H18.5215L18.1289 281.746ZM20.4414 284H20.082V281.652H19.2773V281.334H21.2441V281.652H20.4414V284ZM22.0664 284H21.707V281.334H22.0664V284ZM23.0605 282.486V282.863C23.0605 283.048 23.0879 283.206 23.1426 283.336C23.1973 283.466 23.2767 283.566 23.3809 283.635C23.485 283.702 23.6113 283.736 23.7598 283.736C23.8743 283.736 23.9759 283.716 24.0645 283.676C24.153 283.635 24.2246 283.579 24.2793 283.508C24.3353 283.435 24.3691 283.352 24.3809 283.258H24.7363C24.7363 283.26 24.7363 283.263 24.7363 283.266C24.7363 283.267 24.7363 283.268 24.7363 283.27C24.7233 283.421 24.6725 283.555 24.584 283.674C24.4967 283.792 24.3815 283.885 24.2383 283.953C24.0964 284.021 23.9362 284.055 23.7578 284.055C23.5326 284.055 23.3405 284.008 23.1816 283.916C23.0241 283.822 22.9043 283.687 22.8223 283.51C22.7402 283.333 22.6992 283.118 22.6992 282.867V282.482C22.6992 282.231 22.7409 282.016 22.8242 281.836C22.9076 281.656 23.0286 281.519 23.1875 281.424C23.3464 281.327 23.5365 281.279 23.7578 281.279C23.8919 281.279 24.0163 281.299 24.1309 281.34C24.2454 281.38 24.3464 281.438 24.4336 281.512C24.5208 281.586 24.5905 281.673 24.6426 281.773C24.696 281.874 24.7272 281.984 24.7363 282.105C24.7363 282.107 24.7363 282.109 24.7363 282.111C24.7363 282.113 24.7363 282.115 24.7363 282.117H24.3809C24.3691 282.016 24.3353 281.926 24.2793 281.85C24.2233 281.771 24.1504 281.71 24.0605 281.666C23.972 281.62 23.8717 281.598 23.7598 281.598C23.6139 281.598 23.4889 281.633 23.3848 281.705C23.2806 281.775 23.2005 281.877 23.1445 282.01C23.0885 282.141 23.0605 282.3 23.0605 282.486Z" fill="white"/>
<path d="M33.9805 284L33.0254 281.334H33.4355L34.1621 283.578H34.1816L34.9062 281.334H35.3125L34.3574 284H33.9805ZM36.127 284H35.7676V281.334H36.127V284ZM36.8652 281.334H37.7324C37.9915 281.334 38.2077 281.385 38.3809 281.486C38.5553 281.587 38.6862 281.736 38.7734 281.934C38.862 282.132 38.9062 282.376 38.9062 282.666C38.9062 282.955 38.862 283.199 38.7734 283.398C38.6862 283.596 38.5553 283.746 38.3809 283.848C38.2077 283.949 37.9915 284 37.7324 284H36.8652V281.334ZM37.2246 281.648V283.684H37.707C37.8451 283.684 37.9661 283.663 38.0703 283.621C38.1745 283.578 38.2604 283.514 38.3281 283.43C38.3958 283.345 38.4466 283.24 38.4805 283.113C38.5156 282.987 38.5332 282.839 38.5332 282.668C38.5332 282.441 38.5026 282.253 38.4414 282.102C38.3815 281.951 38.2904 281.837 38.168 281.762C38.0456 281.686 37.8919 281.648 37.707 281.648H37.2246ZM41.1094 283.684V284H39.498V281.334H41.1094V281.65H39.8555V282.486H41.0391V282.795H39.8555V283.684H41.1094ZM43.4336 282.473C43.4336 282.276 43.4017 282.113 43.3379 281.984C43.2754 281.855 43.1908 281.759 43.084 281.695C42.9772 281.63 42.8561 281.598 42.7207 281.598C42.5853 281.598 42.4635 281.63 42.3555 281.695C42.2487 281.759 42.1641 281.855 42.1016 281.984C42.0391 282.113 42.0078 282.276 42.0078 282.473V282.861C42.0078 283.057 42.0391 283.219 42.1016 283.35C42.1641 283.48 42.2487 283.577 42.3555 283.641C42.4635 283.704 42.5853 283.736 42.7207 283.736C42.8561 283.736 42.9772 283.704 43.084 283.641C43.1908 283.577 43.2754 283.48 43.3379 283.35C43.4017 283.219 43.4336 283.057 43.4336 282.861V282.473ZM43.7949 282.861C43.7949 283.113 43.7507 283.327 43.6621 283.506C43.5736 283.684 43.4486 283.82 43.2871 283.914C43.127 284.008 42.9382 284.055 42.7207 284.055C42.502 284.055 42.3118 284.008 42.1504 283.914C41.9902 283.82 41.8659 283.684 41.7773 283.506C41.6901 283.327 41.6465 283.113 41.6465 282.861V282.475C41.6465 282.222 41.6901 282.007 41.7773 281.828C41.8659 281.65 41.9902 281.514 42.1504 281.42C42.3118 281.326 42.502 281.279 42.7207 281.279C42.9382 281.279 43.127 281.326 43.2871 281.42C43.4486 281.514 43.5736 281.65 43.6621 281.828C43.7507 282.007 43.7949 282.222 43.7949 282.475V282.861Z" fill="white"/>
<path d="M56.6191 281.334C56.7923 281.334 56.9427 281.37 57.0703 281.441C57.1979 281.512 57.2969 281.609 57.3672 281.734C57.4375 281.859 57.4727 282.005 57.4727 282.17C57.4727 282.334 57.4375 282.479 57.3672 282.605C57.2969 282.73 57.1973 282.828 57.0684 282.898C56.9408 282.969 56.7904 283.004 56.6172 283.004H55.998V284H55.6387V281.334H56.6191ZM57.1035 282.17C57.1035 282.003 57.0579 281.875 56.9668 281.785C56.877 281.694 56.75 281.648 56.5859 281.648H55.998V282.691H56.5859C56.6966 282.691 56.7897 282.671 56.8652 282.631C56.9421 282.589 57.0007 282.529 57.041 282.451C57.0827 282.373 57.1035 282.279 57.1035 282.17ZM60.0371 284H59.6777V282.779H58.3574V284H57.998V281.334H58.3574V282.463H59.6777V281.334H60.0371V284ZM62.457 282.473C62.457 282.276 62.4251 282.113 62.3613 281.984C62.2988 281.855 62.2142 281.759 62.1074 281.695C62.0007 281.63 61.8796 281.598 61.7441 281.598C61.6087 281.598 61.487 281.63 61.3789 281.695C61.2721 281.759 61.1875 281.855 61.125 281.984C61.0625 282.113 61.0312 282.276 61.0312 282.473V282.861C61.0312 283.057 61.0625 283.219 61.125 283.35C61.1875 283.48 61.2721 283.577 61.3789 283.641C61.487 283.704 61.6087 283.736 61.7441 283.736C61.8796 283.736 62.0007 283.704 62.1074 283.641C62.2142 283.577 62.2988 283.48 62.3613 283.35C62.4251 283.219 62.457 283.057 62.457 282.861V282.473ZM62.8184 282.861C62.8184 283.113 62.7741 283.327 62.6855 283.506C62.597 283.684 62.472 283.82 62.3105 283.914C62.1504 284.008 61.9616 284.055 61.7441 284.055C61.5254 284.055 61.3353 284.008 61.1738 283.914C61.0137 283.82 60.8893 283.684 60.8008 283.506C60.7135 283.327 60.6699 283.113 60.6699 282.861V282.475C60.6699 282.222 60.7135 282.007 60.8008 281.828C60.8893 281.65 61.0137 281.514 61.1738 281.42C61.3353 281.326 61.5254 281.279 61.7441 281.279C61.9616 281.279 62.1504 281.326 62.3105 281.42C62.472 281.514 62.597 281.65 62.6855 281.828C62.7741 282.007 62.8184 282.222 62.8184 282.475V282.861ZM64.248 284H63.8887V281.652H63.084V281.334H65.0508V281.652H64.248V284ZM67.1055 282.473C67.1055 282.276 67.0736 282.113 67.0098 281.984C66.9473 281.855 66.8626 281.759 66.7559 281.695C66.6491 281.63 66.528 281.598 66.3926 281.598C66.2572 281.598 66.1354 281.63 66.0273 281.695C65.9206 281.759 65.8359 281.855 65.7734 281.984C65.7109 282.113 65.6797 282.276 65.6797 282.473V282.861C65.6797 283.057 65.7109 283.219 65.7734 283.35C65.8359 283.48 65.9206 283.577 66.0273 283.641C66.1354 283.704 66.2572 283.736 66.3926 283.736C66.528 283.736 66.6491 283.704 66.7559 283.641C66.8626 283.577 66.9473 283.48 67.0098 283.35C67.0736 283.219 67.1055 283.057 67.1055 282.861V282.473ZM67.4668 282.861C67.4668 283.113 67.4225 283.327 67.334 283.506C67.2454 283.684 67.1204 283.82 66.959 283.914C66.7988 284.008 66.61 284.055 66.3926 284.055C66.1738 284.055 65.9837 284.008 65.8223 283.914C65.6621 283.82 65.5378 283.684 65.4492 283.506C65.362 283.327 65.3184 283.113 65.3184 282.861V282.475C65.3184 282.222 65.362 282.007 65.4492 281.828C65.5378 281.65 65.6621 281.514 65.8223 281.42C65.9837 281.326 66.1738 281.279 66.3926 281.279C66.61 281.279 66.7988 281.326 66.959 281.42C67.1204 281.514 67.2454 281.65 67.334 281.828C67.4225 282.007 67.4668 282.222 67.4668 282.475V282.861Z" fill="#FFD50B"/>
<path d="M79.916 281.334C80.0892 281.334 80.2396 281.37 80.3672 281.441C80.4948 281.512 80.5938 281.609 80.6641 281.734C80.7344 281.859 80.7695 282.005 80.7695 282.17C80.7695 282.334 80.7344 282.479 80.6641 282.605C80.5938 282.73 80.4941 282.828 80.3652 282.898C80.2376 282.969 80.0872 283.004 79.9141 283.004H79.2949V284H78.9355V281.334H79.916ZM80.4004 282.17C80.4004 282.003 80.3548 281.875 80.2637 281.785C80.1738 281.694 80.0469 281.648 79.8828 281.648H79.2949V282.691H79.8828C79.9935 282.691 80.0866 282.671 80.1621 282.631C80.2389 282.589 80.2975 282.529 80.3379 282.451C80.3796 282.373 80.4004 282.279 80.4004 282.17ZM82.9766 282.473C82.9766 282.276 82.9447 282.113 82.8809 281.984C82.8184 281.855 82.7337 281.759 82.627 281.695C82.5202 281.63 82.3991 281.598 82.2637 281.598C82.1283 281.598 82.0065 281.63 81.8984 281.695C81.7917 281.759 81.707 281.855 81.6445 281.984C81.582 282.113 81.5508 282.276 81.5508 282.473V282.861C81.5508 283.057 81.582 283.219 81.6445 283.35C81.707 283.48 81.7917 283.577 81.8984 283.641C82.0065 283.704 82.1283 283.736 82.2637 283.736C82.3991 283.736 82.5202 283.704 82.627 283.641C82.7337 283.577 82.8184 283.48 82.8809 283.35C82.9447 283.219 82.9766 283.057 82.9766 282.861V282.473ZM83.3379 282.861C83.3379 283.113 83.2936 283.327 83.2051 283.506C83.1165 283.684 82.9915 283.82 82.8301 283.914C82.6699 284.008 82.4811 284.055 82.2637 284.055C82.0449 284.055 81.8548 284.008 81.6934 283.914C81.5332 283.82 81.4089 283.684 81.3203 283.506C81.2331 283.327 81.1895 283.113 81.1895 282.861V282.475C81.1895 282.222 81.2331 282.007 81.3203 281.828C81.4089 281.65 81.5332 281.514 81.6934 281.42C81.8548 281.326 82.0449 281.279 82.2637 281.279C82.4811 281.279 82.6699 281.326 82.8301 281.42C82.9915 281.514 83.1165 281.65 83.2051 281.828C83.2936 282.007 83.3379 282.222 83.3379 282.475V282.861ZM84.9434 281.334C85.1217 281.334 85.2754 281.367 85.4043 281.434C85.5332 281.499 85.6328 281.591 85.7031 281.711C85.7734 281.831 85.8086 281.971 85.8086 282.133C85.8086 282.255 85.7878 282.366 85.7461 282.465C85.7044 282.562 85.6465 282.646 85.5723 282.717C85.498 282.787 85.4115 282.84 85.3125 282.877L85.8555 284H85.4473L84.957 282.945H84.3281V284H83.9707V281.334H84.9434ZM84.3281 282.637H84.8828C85.0625 282.637 85.1999 282.596 85.2949 282.514C85.39 282.432 85.4375 282.311 85.4375 282.152C85.4375 281.991 85.3893 281.867 85.293 281.779C85.1979 281.691 85.0658 281.646 84.8965 281.646H84.3281V282.637ZM87.3418 284H86.9824V281.652H86.1777V281.334H88.1445V281.652H87.3418V284ZM89.5801 281.334C89.7585 281.334 89.9121 281.367 90.041 281.434C90.1699 281.499 90.2695 281.591 90.3398 281.711C90.4102 281.831 90.4453 281.971 90.4453 282.133C90.4453 282.255 90.4245 282.366 90.3828 282.465C90.3411 282.562 90.2832 282.646 90.209 282.717C90.1348 282.787 90.0482 282.84 89.9492 282.877L90.4922 284H90.084L89.5938 282.945H88.9648V284H88.6074V281.334H89.5801ZM88.9648 282.637H89.5195C89.6992 282.637 89.8366 282.596 89.9316 282.514C90.0267 282.432 90.0742 282.311 90.0742 282.152C90.0742 281.991 90.026 281.867 89.9297 281.779C89.8346 281.691 89.7025 281.646 89.5332 281.646H88.9648V282.637ZM91.1953 284H90.8223L91.7656 281.334H92.1387L93.0801 284H92.7012L92.4395 283.211H91.457L91.1953 284ZM91.9551 281.746H91.9414L91.5508 282.924H92.3477L91.9551 281.746ZM93.9121 284H93.5527V281.334H93.9121V284ZM95.5371 284H95.1777V281.652H94.373V281.334H96.3398V281.652H95.5371V284Z" fill="white"/>
<path d="M105.766 281.334C105.939 281.334 106.089 281.37 106.217 281.441C106.344 281.512 106.443 281.609 106.514 281.734C106.584 281.859 106.619 282.005 106.619 282.17C106.619 282.334 106.584 282.479 106.514 282.605C106.443 282.73 106.344 282.828 106.215 282.898C106.087 282.969 105.937 283.004 105.764 283.004H105.145V284H104.785V281.334H105.766ZM106.25 282.17C106.25 282.003 106.204 281.875 106.113 281.785C106.023 281.694 105.896 281.648 105.732 281.648H105.145V282.691H105.732C105.843 282.691 105.936 282.671 106.012 282.631C106.089 282.589 106.147 282.529 106.188 282.451C106.229 282.373 106.25 282.279 106.25 282.17ZM107.15 284H106.777L107.721 281.334H108.094L109.035 284H108.656L108.395 283.211H107.412L107.15 284ZM107.91 281.746H107.896L107.506 282.924H108.303L107.91 281.746ZM109.861 284H109.508V281.334H109.848L111.166 283.385H111.184V281.334H111.537V284H111.197L109.875 281.947H109.861V284ZM113.959 282.473C113.959 282.276 113.927 282.113 113.863 281.984C113.801 281.855 113.716 281.759 113.609 281.695C113.503 281.63 113.382 281.598 113.246 281.598C113.111 281.598 112.989 281.63 112.881 281.695C112.774 281.759 112.689 281.855 112.627 281.984C112.564 282.113 112.533 282.276 112.533 282.473V282.861C112.533 283.057 112.564 283.219 112.627 283.35C112.689 283.48 112.774 283.577 112.881 283.641C112.989 283.704 113.111 283.736 113.246 283.736C113.382 283.736 113.503 283.704 113.609 283.641C113.716 283.577 113.801 283.48 113.863 283.35C113.927 283.219 113.959 283.057 113.959 282.861V282.473ZM114.32 282.861C114.32 283.113 114.276 283.327 114.188 283.506C114.099 283.684 113.974 283.82 113.812 283.914C113.652 284.008 113.464 284.055 113.246 284.055C113.027 284.055 112.837 284.008 112.676 283.914C112.516 283.82 112.391 283.684 112.303 283.506C112.215 283.327 112.172 283.113 112.172 282.861V282.475C112.172 282.222 112.215 282.007 112.303 281.828C112.391 281.65 112.516 281.514 112.676 281.42C112.837 281.326 113.027 281.279 113.246 281.279C113.464 281.279 113.652 281.326 113.812 281.42C113.974 281.514 114.099 281.65 114.188 281.828C114.276 282.007 114.32 282.222 114.32 282.475V282.861Z" fill="white"/>
<defs>
<clipPath id="clip0_537_3287">
<rect width="3.95122" height="3.95122" fill="white" transform="matrix(0 1 -1 0 62.9756 3.02454)"/>
</clipPath>
</defs>
</svg>
