<svg width="240" height="362" viewBox="0 0 240 362" fill="none" xmlns="http://www.w3.org/2000/svg">
<ellipse cx="119.999" cy="311" rx="7.68462" ry="7.68519" fill="white"/>
<path d="M129.999 311C129.999 316.523 125.522 321 119.999 321C114.477 321 110 316.523 110 311C110 305.477 114.477 301 119.999 301C125.522 301 129.999 305.477 129.999 311ZM111.245 311C111.245 315.835 115.164 319.755 119.999 319.755C124.834 319.755 128.754 315.835 128.754 311C128.754 306.165 124.834 302.245 119.999 302.245C115.164 302.245 111.245 306.165 111.245 311Z" fill="white"/>
<rect x="19" y="303" width="14" height="14" rx="3" fill="white"/>
<circle cx="213.5" cy="310.5" r="6.5" fill="black" fill-opacity="0.35"/>
<path d="M216.631 311.816C216.419 312.481 215.918 313.049 215.225 313.406C214.533 313.762 213.7 313.883 212.891 313.743C212.083 313.603 211.357 313.213 210.858 312.65C210.358 312.087 210.121 311.392 210.194 310.702L210.553 310.738C210.488 311.352 210.699 311.971 211.143 312.472C211.588 312.973 212.234 313.32 212.954 313.445C213.674 313.569 214.415 313.462 215.032 313.144C215.648 312.827 216.095 312.322 216.283 311.729L216.631 311.816Z" fill="white"/>
<path d="M210.452 309.724L211.058 310.788L209.679 310.674L210.452 309.724Z" fill="white"/>
<path d="M210.281 309.185C210.493 308.519 210.994 307.952 211.687 307.595C212.379 307.238 213.212 307.118 214.021 307.257C214.829 307.397 215.555 307.787 216.055 308.35C216.554 308.913 216.791 309.608 216.718 310.298L216.359 310.263C216.424 309.648 216.213 309.03 215.769 308.529C215.324 308.027 214.678 307.68 213.958 307.556C213.238 307.431 212.497 307.538 211.88 307.856C211.264 308.174 210.818 308.679 210.629 309.272L210.281 309.185Z" fill="white"/>
<path d="M216.46 311.277L215.854 310.212L217.233 310.327L216.46 311.277Z" fill="white"/>
<path d="M15.1177 288.351V289.011C15.1177 289.334 15.1655 289.61 15.2612 289.838C15.3569 290.066 15.4959 290.24 15.6782 290.361C15.8605 290.479 16.0815 290.539 16.3413 290.539C16.5418 290.539 16.7196 290.503 16.8745 290.433C17.0295 290.362 17.1548 290.264 17.2505 290.139C17.3485 290.011 17.4077 289.865 17.4282 289.701H18.0503C18.0503 289.706 18.0503 289.71 18.0503 289.715C18.0503 289.717 18.0503 289.719 18.0503 289.722C18.0275 289.986 17.9386 290.222 17.7837 290.429C17.631 290.637 17.4294 290.799 17.1787 290.918C16.9303 291.036 16.6501 291.096 16.3379 291.096C15.9437 291.096 15.6076 291.015 15.3296 290.853C15.0539 290.689 14.8442 290.452 14.7007 290.142C14.5571 289.832 14.4854 289.457 14.4854 289.018V288.344C14.4854 287.904 14.5583 287.527 14.7041 287.213C14.8499 286.898 15.0618 286.658 15.3398 286.492C15.6178 286.323 15.9505 286.239 16.3379 286.239C16.5726 286.239 16.7902 286.274 16.9907 286.345C17.1912 286.415 17.3678 286.516 17.5205 286.646C17.6732 286.775 17.7951 286.928 17.8862 287.104C17.9797 287.279 18.0343 287.473 18.0503 287.685C18.0503 287.687 18.0503 287.69 18.0503 287.695C18.0503 287.697 18.0503 287.701 18.0503 287.705H17.4282C17.4077 287.527 17.3485 287.371 17.2505 287.237C17.1525 287.1 17.0249 286.993 16.8677 286.916C16.7127 286.836 16.5373 286.796 16.3413 286.796C16.0861 286.796 15.8674 286.859 15.6851 286.984C15.5028 287.107 15.3626 287.285 15.2646 287.517C15.1667 287.747 15.1177 288.025 15.1177 288.351ZM19.7627 291H19.1338V286.334H19.7627V291ZM21.6733 291H21.0547V286.334H21.6494L23.9565 289.923H23.9873V286.334H24.606V291H24.0112L21.6973 287.408H21.6733V291ZM28.7212 290.446V291H25.9014V286.334H28.7212V286.888H26.5269V288.351H28.5981V288.891H26.5269V290.446H28.7212ZM30.4302 291H29.8594V286.334H30.478L31.999 289.91H32.0195L33.5371 286.334H34.1523V291H33.5815V287.609H33.5474L32.2622 290.59H31.7495L30.4609 287.609H30.4302V291ZM35.646 291H34.9932L36.644 286.334H37.2969L38.9443 291H38.2812L37.8232 289.619H36.104L35.646 291ZM36.9756 287.056H36.9517L36.2681 289.117H37.6626L36.9756 287.056ZM41.0225 291H40.3936V286.892H38.9854V286.334H42.4272V286.892H41.0225V291ZM43.8662 291H43.2373V286.334H43.8662V291ZM45.606 288.351V289.011C45.606 289.334 45.6538 289.61 45.7495 289.838C45.8452 290.066 45.9842 290.24 46.1665 290.361C46.3488 290.479 46.5698 290.539 46.8296 290.539C47.0301 290.539 47.2078 290.503 47.3628 290.433C47.5177 290.362 47.6431 290.264 47.7388 290.139C47.8368 290.011 47.896 289.865 47.9165 289.701H48.5386C48.5386 289.706 48.5386 289.71 48.5386 289.715C48.5386 289.717 48.5386 289.719 48.5386 289.722C48.5158 289.986 48.4269 290.222 48.272 290.429C48.1193 290.637 47.9176 290.799 47.667 290.918C47.4186 291.036 47.1383 291.096 46.8262 291.096C46.432 291.096 46.0959 291.015 45.8179 290.853C45.5422 290.689 45.3325 290.452 45.189 290.142C45.0454 289.832 44.9736 289.457 44.9736 289.018V288.344C44.9736 287.904 45.0465 287.527 45.1924 287.213C45.3382 286.898 45.5501 286.658 45.8281 286.492C46.1061 286.323 46.4388 286.239 46.8262 286.239C47.0609 286.239 47.2785 286.274 47.479 286.345C47.6795 286.415 47.8561 286.516 48.0088 286.646C48.1615 286.775 48.2834 286.928 48.3745 287.104C48.4679 287.279 48.5226 287.473 48.5386 287.685C48.5386 287.687 48.5386 287.69 48.5386 287.695C48.5386 287.697 48.5386 287.701 48.5386 287.705H47.9165C47.896 287.527 47.8368 287.371 47.7388 287.237C47.6408 287.1 47.5132 286.993 47.356 286.916C47.201 286.836 47.0256 286.796 46.8296 286.796C46.5744 286.796 46.3556 286.859 46.1733 286.984C45.991 287.107 45.8509 287.285 45.7529 287.517C45.6549 287.747 45.606 288.025 45.606 288.351Z" fill="white"/>
<path d="M72.0908 291L70.4194 286.334H71.1372L72.4087 290.262H72.4429L73.7109 286.334H74.4219L72.7505 291H72.0908ZM75.8472 291H75.2183V286.334H75.8472V291ZM77.1392 286.334H78.6567C79.1102 286.334 79.4884 286.423 79.7915 286.601C80.0968 286.777 80.3258 287.037 80.4785 287.384C80.6335 287.73 80.7109 288.157 80.7109 288.666C80.7109 289.171 80.6335 289.599 80.4785 289.947C80.3258 290.294 80.0968 290.556 79.7915 290.733C79.4884 290.911 79.1102 291 78.6567 291H77.1392V286.334ZM77.7681 286.885V290.446H78.6123C78.8538 290.446 79.0658 290.41 79.248 290.337C79.4303 290.262 79.5807 290.15 79.6992 290.002C79.8177 289.854 79.9066 289.669 79.9658 289.448C80.0273 289.227 80.0581 288.967 80.0581 288.669C80.0581 288.272 80.0046 287.942 79.8975 287.678C79.7926 287.413 79.6331 287.215 79.4189 287.083C79.2048 286.951 78.9359 286.885 78.6123 286.885H77.7681ZM84.5664 290.446V291H81.7466V286.334H84.5664V286.888H82.3721V288.351H84.4434V288.891H82.3721V290.446H84.5664ZM88.6338 288.327C88.6338 287.983 88.578 287.698 88.4663 287.473C88.3569 287.247 88.2088 287.078 88.022 286.967C87.8351 286.853 87.6232 286.796 87.3862 286.796C87.1493 286.796 86.9362 286.853 86.7471 286.967C86.5602 287.078 86.4121 287.247 86.3027 287.473C86.1934 287.698 86.1387 287.983 86.1387 288.327V289.007C86.1387 289.349 86.1934 289.634 86.3027 289.862C86.4121 290.09 86.5602 290.259 86.7471 290.371C86.9362 290.483 87.1493 290.539 87.3862 290.539C87.6232 290.539 87.8351 290.483 88.022 290.371C88.2088 290.259 88.3569 290.09 88.4663 289.862C88.578 289.634 88.6338 289.349 88.6338 289.007V288.327ZM89.2661 289.007C89.2661 289.447 89.1886 289.823 89.0337 290.135C88.8787 290.447 88.66 290.686 88.3774 290.85C88.0972 291.014 87.7668 291.096 87.3862 291.096C87.0034 291.096 86.6707 291.014 86.3882 290.85C86.1079 290.686 85.8903 290.447 85.7354 290.135C85.5827 289.823 85.5063 289.447 85.5063 289.007V288.331C85.5063 287.889 85.5827 287.511 85.7354 287.199C85.8903 286.887 86.1079 286.649 86.3882 286.485C86.6707 286.321 87.0034 286.239 87.3862 286.239C87.7668 286.239 88.0972 286.321 88.3774 286.485C88.66 286.649 88.8787 286.887 89.0337 287.199C89.1886 287.511 89.2661 287.889 89.2661 288.331V289.007Z" fill="white"/>
<path d="M113.458 286.334C113.762 286.334 114.025 286.397 114.248 286.522C114.471 286.646 114.645 286.816 114.768 287.035C114.891 287.254 114.952 287.508 114.952 287.797C114.952 288.084 114.891 288.339 114.768 288.56C114.645 288.778 114.47 288.949 114.245 289.072C114.021 289.195 113.758 289.257 113.455 289.257H112.372V291H111.743V286.334H113.458ZM114.306 287.797C114.306 287.506 114.226 287.281 114.067 287.124C113.91 286.965 113.688 286.885 113.4 286.885H112.372V288.71H113.4C113.594 288.71 113.757 288.675 113.889 288.604C114.024 288.531 114.126 288.426 114.197 288.29C114.27 288.153 114.306 287.989 114.306 287.797ZM119.44 291H118.811V288.864H116.5V291H115.872V286.334H116.5V288.31H118.811V286.334H119.44V291ZM123.675 288.327C123.675 287.983 123.619 287.698 123.507 287.473C123.398 287.247 123.25 287.078 123.063 286.967C122.876 286.853 122.664 286.796 122.427 286.796C122.19 286.796 121.977 286.853 121.788 286.967C121.601 287.078 121.453 287.247 121.344 287.473C121.234 287.698 121.18 287.983 121.18 288.327V289.007C121.18 289.349 121.234 289.634 121.344 289.862C121.453 290.09 121.601 290.259 121.788 290.371C121.977 290.483 122.19 290.539 122.427 290.539C122.664 290.539 122.876 290.483 123.063 290.371C123.25 290.259 123.398 290.09 123.507 289.862C123.619 289.634 123.675 289.349 123.675 289.007V288.327ZM124.307 289.007C124.307 289.447 124.23 289.823 124.075 290.135C123.92 290.447 123.701 290.686 123.418 290.85C123.138 291.014 122.808 291.096 122.427 291.096C122.044 291.096 121.712 291.014 121.429 290.85C121.149 290.686 120.931 290.447 120.776 290.135C120.624 289.823 120.547 289.447 120.547 289.007V288.331C120.547 287.889 120.624 287.511 120.776 287.199C120.931 286.887 121.149 286.649 121.429 286.485C121.712 286.321 122.044 286.239 122.427 286.239C122.808 286.239 123.138 286.321 123.418 286.485C123.701 286.649 123.92 286.887 124.075 287.199C124.23 287.511 124.307 287.889 124.307 288.331V289.007ZM126.809 291H126.18V286.892H124.772V286.334H128.214V286.892H126.809V291ZM131.81 288.327C131.81 287.983 131.754 287.698 131.642 287.473C131.533 287.247 131.385 287.078 131.198 286.967C131.011 286.853 130.799 286.796 130.562 286.796C130.325 286.796 130.112 286.853 129.923 286.967C129.736 287.078 129.588 287.247 129.479 287.473C129.369 287.698 129.314 287.983 129.314 288.327V289.007C129.314 289.349 129.369 289.634 129.479 289.862C129.588 290.09 129.736 290.259 129.923 290.371C130.112 290.483 130.325 290.539 130.562 290.539C130.799 290.539 131.011 290.483 131.198 290.371C131.385 290.259 131.533 290.09 131.642 289.862C131.754 289.634 131.81 289.349 131.81 289.007V288.327ZM132.442 289.007C132.442 289.447 132.364 289.823 132.209 290.135C132.055 290.447 131.836 290.686 131.553 290.85C131.273 291.014 130.943 291.096 130.562 291.096C130.179 291.096 129.847 291.014 129.564 290.85C129.284 290.686 129.066 290.447 128.911 290.135C128.758 289.823 128.682 289.447 128.682 289.007V288.331C128.682 287.889 128.758 287.511 128.911 287.199C129.066 286.887 129.284 286.649 129.564 286.485C129.847 286.321 130.179 286.239 130.562 286.239C130.943 286.239 131.273 286.321 131.553 286.485C131.836 286.649 132.055 286.887 132.209 287.199C132.364 287.511 132.442 287.889 132.442 288.331V289.007Z" fill="#FFD50B"/>
<path d="M152.728 286.334C153.031 286.334 153.294 286.397 153.518 286.522C153.741 286.646 153.914 286.816 154.037 287.035C154.16 287.254 154.222 287.508 154.222 287.797C154.222 288.084 154.16 288.339 154.037 288.56C153.914 288.778 153.74 288.949 153.514 289.072C153.291 289.195 153.028 289.257 152.725 289.257H151.641V291H151.012V286.334H152.728ZM153.576 287.797C153.576 287.506 153.496 287.281 153.336 287.124C153.179 286.965 152.957 286.885 152.67 286.885H151.641V288.71H152.67C152.864 288.71 153.027 288.675 153.159 288.604C153.293 288.531 153.396 288.426 153.466 288.29C153.539 288.153 153.576 287.989 153.576 287.797ZM158.084 288.327C158.084 287.983 158.028 287.698 157.917 287.473C157.807 287.247 157.659 287.078 157.472 286.967C157.285 286.853 157.073 286.796 156.836 286.796C156.599 286.796 156.386 286.853 156.197 286.967C156.01 287.078 155.862 287.247 155.753 287.473C155.644 287.698 155.589 287.983 155.589 288.327V289.007C155.589 289.349 155.644 289.634 155.753 289.862C155.862 290.09 156.01 290.259 156.197 290.371C156.386 290.483 156.599 290.539 156.836 290.539C157.073 290.539 157.285 290.483 157.472 290.371C157.659 290.259 157.807 290.09 157.917 289.862C158.028 289.634 158.084 289.349 158.084 289.007V288.327ZM158.716 289.007C158.716 289.447 158.639 289.823 158.484 290.135C158.329 290.447 158.11 290.686 157.828 290.85C157.547 291.014 157.217 291.096 156.836 291.096C156.454 291.096 156.121 291.014 155.838 290.85C155.558 290.686 155.34 290.447 155.186 290.135C155.033 289.823 154.957 289.447 154.957 289.007V288.331C154.957 287.889 155.033 287.511 155.186 287.199C155.34 286.887 155.558 286.649 155.838 286.485C156.121 286.321 156.454 286.239 156.836 286.239C157.217 286.239 157.547 286.321 157.828 286.485C158.11 286.649 158.329 286.887 158.484 287.199C158.639 287.511 158.716 287.889 158.716 288.331V289.007ZM161.526 286.334C161.838 286.334 162.107 286.393 162.333 286.509C162.558 286.623 162.732 286.785 162.855 286.994C162.979 287.204 163.04 287.45 163.04 287.732C163.04 287.947 163.004 288.14 162.931 288.313C162.858 288.484 162.756 288.631 162.626 288.754C162.497 288.877 162.345 288.971 162.172 289.035L163.122 291H162.408L161.55 289.154H160.449V291H159.824V286.334H161.526ZM160.449 288.614H161.42C161.734 288.614 161.975 288.542 162.141 288.399C162.307 288.255 162.391 288.045 162.391 287.767C162.391 287.484 162.306 287.266 162.138 287.114C161.971 286.959 161.74 286.881 161.444 286.881H160.449V288.614ZM165.723 291H165.094V286.892H163.686V286.334H167.128V286.892H165.723V291ZM169.64 286.334C169.952 286.334 170.221 286.393 170.447 286.509C170.672 286.623 170.847 286.785 170.97 286.994C171.093 287.204 171.154 287.45 171.154 287.732C171.154 287.947 171.118 288.14 171.045 288.313C170.972 288.484 170.871 288.631 170.741 288.754C170.611 288.877 170.459 288.971 170.286 289.035L171.236 291H170.522L169.664 289.154H168.563V291H167.938V286.334H169.64ZM168.563 288.614H169.534C169.849 288.614 170.089 288.542 170.255 288.399C170.422 288.255 170.505 288.045 170.505 287.767C170.505 287.484 170.421 287.266 170.252 287.114C170.086 286.959 169.854 286.881 169.558 286.881H168.563V288.614ZM172.467 291H171.814L173.465 286.334H174.118L175.765 291H175.102L174.644 289.619H172.925L172.467 291ZM173.796 287.056H173.772L173.089 289.117H174.483L173.796 287.056ZM177.221 291H176.592V286.334H177.221V291ZM180.065 291H179.436V286.892H178.028V286.334H181.47V286.892H180.065V291Z" fill="white"/>
<path d="M205.465 286.334C205.768 286.334 206.031 286.397 206.254 286.522C206.478 286.646 206.651 286.816 206.774 287.035C206.897 287.254 206.958 287.508 206.958 287.797C206.958 288.084 206.897 288.339 206.774 288.56C206.651 288.778 206.477 288.949 206.251 289.072C206.028 289.195 205.764 289.257 205.461 289.257H204.378V291H203.749V286.334H205.465ZM206.312 287.797C206.312 287.506 206.233 287.281 206.073 287.124C205.916 286.965 205.694 286.885 205.407 286.885H204.378V288.71H205.407C205.6 288.71 205.763 288.675 205.896 288.604C206.03 288.531 206.132 288.426 206.203 288.29C206.276 288.153 206.312 287.989 206.312 287.797ZM207.888 291H207.235L208.886 286.334H209.539L211.187 291H210.523L210.065 289.619H208.346L207.888 291ZM209.218 287.056H209.194L208.51 289.117H209.905L209.218 287.056ZM212.632 291H212.014V286.334H212.608L214.916 289.923H214.946V286.334H215.565V291H214.97L212.656 287.408H212.632V291ZM219.803 288.327C219.803 287.983 219.747 287.698 219.636 287.473C219.526 287.247 219.378 287.078 219.191 286.967C219.005 286.853 218.793 286.796 218.556 286.796C218.319 286.796 218.106 286.853 217.917 286.967C217.73 287.078 217.582 287.247 217.472 287.473C217.363 287.698 217.308 287.983 217.308 288.327V289.007C217.308 289.349 217.363 289.634 217.472 289.862C217.582 290.09 217.73 290.259 217.917 290.371C218.106 290.483 218.319 290.539 218.556 290.539C218.793 290.539 219.005 290.483 219.191 290.371C219.378 290.259 219.526 290.09 219.636 289.862C219.747 289.634 219.803 289.349 219.803 289.007V288.327ZM220.436 289.007C220.436 289.447 220.358 289.823 220.203 290.135C220.048 290.447 219.829 290.686 219.547 290.85C219.267 291.014 218.936 291.096 218.556 291.096C218.173 291.096 217.84 291.014 217.558 290.85C217.277 290.686 217.06 290.447 216.905 290.135C216.752 289.823 216.676 289.447 216.676 289.007V288.331C216.676 287.889 216.752 287.511 216.905 287.199C217.06 286.887 217.277 286.649 217.558 286.485C217.84 286.321 218.173 286.239 218.556 286.239C218.936 286.239 219.267 286.321 219.547 286.485C219.829 286.649 220.048 286.887 220.203 287.199C220.358 287.511 220.436 287.889 220.436 288.331V289.007Z" fill="white"/>
<circle cx="234" cy="7" r="3" fill="black"/>
<path d="M235.875 7C235.875 8.03553 235.036 8.875 234 8.875C232.964 8.875 232.125 8.03553 232.125 7C232.125 5.96447 232.964 5.125 234 5.125C235.036 5.125 235.875 5.96447 235.875 7ZM232.294 7C232.294 7.94198 233.058 8.70561 234 8.70561C234.942 8.70561 235.706 7.94198 235.706 7C235.706 6.05802 234.942 5.29439 234 5.29439C233.058 5.29439 232.294 6.05802 232.294 7Z" fill="white"/>
<circle cx="234" cy="6.9999" r="0.975" fill="white"/>
<mask id="path-17-inside-1_539_3385" fill="white">
<path d="M237 7C237 8.65685 235.657 10 234 10C232.343 10 231 8.65685 231 7C231 5.34315 232.343 4 234 4C235.657 4 237 5.34315 237 7ZM231.271 7C231.271 8.50717 232.493 9.72897 234 9.72897C235.507 9.72897 236.729 8.50717 236.729 7C236.729 5.49283 235.507 4.27103 234 4.27103C232.493 4.27103 231.271 5.49283 231.271 7Z"/>
</mask>
<path d="M237 7C237 8.65685 235.657 10 234 10C232.343 10 231 8.65685 231 7C231 5.34315 232.343 4 234 4C235.657 4 237 5.34315 237 7ZM231.271 7C231.271 8.50717 232.493 9.72897 234 9.72897C235.507 9.72897 236.729 8.50717 236.729 7C236.729 5.49283 235.507 4.27103 234 4.27103C232.493 4.27103 231.271 5.49283 231.271 7Z" fill="white" fill-opacity="0.5" stroke="#9C9C9C" stroke-width="1.5" mask="url(#path-17-inside-1_539_3385)"/>
<circle cx="120" cy="7" r="3" fill="#21201E"/>
<g clip-path="url(#clip0_539_3385)">
<path d="M118.354 7.65855L120 6.01221L121.646 7.65855L121.354 7.95077L120 6.59666L118.646 7.95077L118.354 7.65855Z" fill="#F8F8F8"/>
</g>
<circle cx="6" cy="7" r="3" fill="#9C9C9C"/>
<circle cx="6.00015" cy="7.00015" r="2.61538" fill="#050402"/>
<path d="M5.7342 7.40222L5.01286 7.25021L6.44835 5.44328L6.20514 6.59742L6.92648 6.74942L5.49098 8.55636L5.7342 7.40222Z" fill="#F8F8F8"/>
<path d="M112.92 343.408H112.112L112.208 343.08H112.92V342.632C112.92 342.301 113.085 342.04 113.416 341.848C113.752 341.656 114.213 341.56 114.8 341.56C115.36 341.56 115.835 341.637 116.224 341.792V347H115.496V342.032C115.24 341.947 114.981 341.904 114.72 341.904C114.395 341.904 114.136 341.965 113.944 342.088C113.752 342.205 113.656 342.365 113.656 342.568V343.08H114.744L114.656 343.408H113.656V347H112.92V343.408ZM118.096 342.592C117.936 342.592 117.806 342.547 117.704 342.456C117.603 342.365 117.552 342.245 117.552 342.096C117.552 341.947 117.603 341.827 117.704 341.736C117.806 341.645 117.936 341.6 118.096 341.6C118.256 341.6 118.387 341.645 118.488 341.736C118.59 341.827 118.64 341.947 118.64 342.096C118.64 342.245 118.59 342.365 118.488 342.456C118.387 342.547 118.256 342.592 118.096 342.592ZM117.728 343.08H118.464V347H117.728V343.08ZM123.187 346.24C123.032 346.512 122.819 346.72 122.547 346.864C122.275 347.008 121.958 347.08 121.595 347.08C120.976 347.08 120.488 346.899 120.131 346.536C119.774 346.168 119.595 345.664 119.595 345.024C119.595 344.395 119.771 343.901 120.123 343.544C120.48 343.181 120.971 343 121.595 343C121.947 343 122.262 343.072 122.539 343.216C122.816 343.36 123.032 343.557 123.187 343.808V343.08H123.923V348.52H123.187V346.24ZM121.763 346.76C122.195 346.76 122.539 346.605 122.795 346.296C123.056 345.981 123.187 345.565 123.187 345.048C123.187 344.707 123.126 344.405 123.003 344.144C122.886 343.883 122.715 343.68 122.491 343.536C122.272 343.392 122.022 343.32 121.739 343.32C121.307 343.32 120.963 343.472 120.707 343.776C120.456 344.075 120.331 344.485 120.331 345.008C120.331 345.355 120.39 345.661 120.507 345.928C120.624 346.189 120.792 346.395 121.011 346.544C121.23 346.688 121.48 346.76 121.763 346.76ZM125.301 347.08C125.167 347.08 125.058 347.04 124.973 346.96C124.893 346.875 124.853 346.768 124.853 346.64C124.853 346.517 124.895 346.416 124.981 346.336C125.066 346.251 125.173 346.208 125.301 346.208C125.434 346.208 125.543 346.251 125.629 346.336C125.714 346.416 125.757 346.517 125.757 346.64C125.757 346.768 125.714 346.875 125.629 346.96C125.543 347.04 125.434 347.08 125.301 347.08Z" fill="#FDFFFF"/>
<defs>
<clipPath id="clip0_539_3385">
<rect width="3.95122" height="3.95122" fill="white" transform="matrix(0 1 -1 0 121.976 5.02441)"/>
</clipPath>
</defs>
</svg>
