<svg width="1266" height="586" viewBox="0 0 1266 586" fill="none" xmlns="http://www.w3.org/2000/svg">
<rect x="14.567" y="84.1669" width="168.692" height="500.641" rx="4.5" transform="rotate(0.0416083 14.567 84.1669)" stroke="#EFF5DC"/>
<rect x="14.567" y="84.1669" width="168.692" height="500.641" rx="4.5" transform="rotate(0.0416083 14.567 84.1669)" stroke="#EFF5DC"/>
<rect x="27.25" y="97.5" width="143" height="106" rx="4.5" stroke="#EFF5DC"/>
<rect x="27.25" y="216.5" width="143" height="106" rx="4.5" stroke="#EFF5DC"/>
<rect x="27.25" y="335.5" width="143" height="106" rx="4.5" stroke="#EFF5DC"/>
<rect x="153.045" y="47.9364" width="168.692" height="537.051" rx="4.5" transform="rotate(-12.4215 153.045 47.9364)" stroke="#EFF5DC"/>
<rect x="168.235" y="57.8928" width="143" height="106" rx="4.5" transform="rotate(-12.4631 168.235 57.8928)" stroke="#EFF5DC"/>
<rect x="193.916" y="174.089" width="143" height="106" rx="4.5" transform="rotate(-12.4631 193.916 174.089)" stroke="#EFF5DC"/>
<rect x="219.596" y="290.284" width="143" height="106" rx="4.5" transform="rotate(-12.4631 219.596 290.284)" stroke="#EFF5DC"/>
<rect x="245.278" y="406.48" width="143" height="106" rx="4.5" transform="rotate(-12.4631 245.278 406.48)" stroke="#EFF5DC"/>
<path d="M309.837 19.9391C310.111 21.1821 310.889 22.2606 311.999 22.9372C313.109 23.6138 314.46 23.8332 315.754 23.547C317.049 23.2608 318.182 22.4926 318.903 21.4113C319.624 20.33 319.875 19.0241 319.6 17.7811C319.326 16.5381 318.548 15.4596 317.438 14.783C316.328 14.1064 314.977 13.887 313.683 14.1732C312.388 14.4594 311.255 15.2276 310.534 16.3089C309.813 17.3902 309.562 18.696 309.837 19.9391Z" stroke="white" stroke-width="1.5" stroke-linecap="round" stroke-linejoin="round"/>
<path d="M311.266 3.23713C312.561 2.95097 313.912 3.17032 315.021 3.84693C316.131 4.52354 316.909 5.60199 317.184 6.84503C317.378 7.72304 317.261 9.1909 316.833 11.2486L316.124 13.6337L318.334 10.0433C318.939 8.92759 319.489 8.14781 319.985 7.70394C320.469 7.27494 321.034 6.94102 321.649 6.72142C322.264 6.50181 322.915 6.40087 323.566 6.4244C324.217 6.44793 324.854 6.59547 325.442 6.85852C326.029 7.12157 326.554 7.49492 326.988 7.95707C327.87 8.89065 328.327 10.1287 328.259 11.4014C328.192 12.6741 327.606 13.8782 326.629 14.7514C326.095 15.2254 325.156 15.7254 323.81 16.2512L319.601 17.7811L323.619 17.4272C325.296 17.2941 326.499 17.343 327.251 17.5682C328.506 17.9482 329.545 18.7931 330.142 19.919C330.739 21.0448 330.847 22.3602 330.44 23.5785C330.242 24.1801 329.923 24.74 329.501 25.2259C329.079 25.7118 328.563 26.1141 327.983 26.4096C327.402 26.7051 326.769 26.888 326.119 26.9478C325.469 27.0075 324.816 26.9429 324.196 26.7577C323.56 26.5673 322.733 26.092 321.714 25.3319L318.196 23.0075L319.844 24.8718C321.098 26.5597 321.823 27.8415 322.018 28.7172C322.293 29.9602 322.042 31.266 321.321 32.3473C320.599 33.4287 319.467 34.1969 318.172 34.4831C316.877 34.7692 315.526 34.5499 314.417 33.8733C313.307 33.1967 312.529 32.1182 312.254 30.8752C312.06 29.9972 312.177 28.5293 312.605 26.4716L313.314 24.0865L311.104 27.6769C310.499 28.7936 309.949 29.5734 309.453 30.0163C308.969 30.4453 308.404 30.7793 307.789 30.999C307.175 31.2187 306.523 31.3198 305.872 31.2964C305.222 31.273 304.584 31.1256 303.997 30.8627C303.41 30.5999 302.884 30.2267 302.451 29.7647C301.569 28.8311 301.112 27.5931 301.179 26.3204C301.246 25.0477 301.832 23.8435 302.809 22.9704C303.343 22.4963 304.283 21.9959 305.628 21.469L309.837 19.9391L305.819 20.2945C304.142 20.4277 302.94 20.3788 302.187 20.1535C300.932 19.7737 299.893 18.9285 299.295 17.8023C298.698 16.6761 298.591 15.3603 298.998 14.1417C299.196 13.54 299.515 12.98 299.937 12.494C300.358 12.0079 300.874 11.6055 301.455 11.3098C302.035 11.0141 302.668 10.8311 303.318 10.7712C303.968 10.7113 304.622 10.7758 305.241 10.9609C305.878 11.1524 306.705 11.6277 307.724 12.3867L311.242 14.7127C308.823 11.4916 307.549 9.58836 307.42 9.00301C307.145 7.75997 307.396 6.45417 308.117 5.37285C308.839 4.29154 309.971 3.5233 311.266 3.23713Z" stroke="white" stroke-width="1.5" stroke-linecap="round" stroke-linejoin="round"/>
<path d="M187.1 168.938C187.375 170.181 188.153 171.259 189.263 171.936C190.373 172.613 191.723 172.832 193.018 172.546C194.313 172.26 195.445 171.491 196.167 170.41C196.888 169.329 197.139 168.023 196.864 166.78C196.589 165.537 195.812 164.458 194.702 163.782C193.592 163.105 192.241 162.886 190.946 163.172C189.652 163.458 188.519 164.226 187.798 165.308C187.076 166.389 186.826 167.695 187.1 168.938Z" stroke="white" stroke-width="1.5" stroke-linecap="round" stroke-linejoin="round"/>
<path d="M188.53 152.236C189.824 151.95 191.175 152.169 192.285 152.846C193.395 153.522 194.173 154.601 194.447 155.844C194.642 156.722 194.524 158.19 194.096 160.247L193.388 162.632L195.598 159.042C196.203 157.926 196.753 157.147 197.249 156.703C197.733 156.274 198.298 155.94 198.913 155.72C199.527 155.501 200.179 155.4 200.83 155.423C201.481 155.447 202.118 155.594 202.705 155.857C203.293 156.12 203.818 156.494 204.251 156.956C205.133 157.889 205.59 159.127 205.523 160.4C205.456 161.673 204.87 162.877 203.893 163.75C203.359 164.224 202.419 164.724 201.073 165.25L196.865 166.78L200.883 166.426C202.56 166.293 203.762 166.342 204.515 166.567C205.769 166.947 206.808 167.792 207.406 168.918C208.003 170.044 208.11 171.359 207.704 172.577C207.506 173.179 207.186 173.739 206.765 174.225C206.343 174.711 205.827 175.113 205.246 175.408C204.666 175.704 204.033 175.887 203.383 175.947C202.733 176.006 202.079 175.942 201.46 175.756C200.824 175.566 199.996 175.091 198.977 174.331L195.459 172.006L197.107 173.871C198.362 175.558 199.087 176.84 199.282 177.716C199.556 178.959 199.306 180.265 198.584 181.346C197.863 182.427 196.73 183.196 195.436 183.482C194.141 183.768 192.79 183.549 191.68 182.872C190.57 182.195 189.793 181.117 189.518 179.874C189.324 178.996 189.441 177.528 189.869 175.47L190.578 173.085L188.367 176.676C187.763 177.792 187.213 178.572 186.717 179.015C186.233 179.444 185.667 179.778 185.053 179.998C184.438 180.217 183.787 180.319 183.136 180.295C182.485 180.272 181.848 180.124 181.26 179.862C180.673 179.599 180.148 179.225 179.714 178.763C178.832 177.83 178.375 176.592 178.443 175.319C178.51 174.046 179.096 172.842 180.073 171.969C180.607 171.495 181.546 170.995 182.892 170.468L187.101 168.938L183.083 169.293C181.406 169.426 180.203 169.378 179.451 169.152C178.196 168.772 177.156 167.927 176.559 166.801C175.962 165.675 175.855 164.359 176.261 163.141C176.46 162.539 176.779 161.979 177.2 161.493C177.622 161.007 178.138 160.604 178.718 160.309C179.299 160.013 179.932 159.83 180.582 159.77C181.232 159.71 181.885 159.775 182.505 159.96C183.141 160.151 183.969 160.626 184.988 161.386L188.506 163.711C186.087 160.49 184.813 158.587 184.684 158.002C184.409 156.759 184.66 155.453 185.381 154.372C186.102 153.29 187.235 152.522 188.53 152.236Z" stroke="white" stroke-width="1.5" stroke-linecap="round" stroke-linejoin="round"/>
<path d="M21.4499 67.6665C15.7499 70.5457 15.7499 78.8633 15.7499 78.8633M15.7499 78.8633C15.7499 78.8633 15.7499 70.5457 10.0499 67.6665M15.7499 78.8633V96.4583" stroke="white" stroke-width="1.5" stroke-linecap="round" stroke-linejoin="round"/>
<path d="M27.75 72.4651C22.5 72.4651 18 78.7033 15.75 82.5422C13.5 78.7033 9 72.4651 3.75 72.4651C2.95435 72.4651 2.19129 72.8021 1.62868 73.4021C1.06607 74.002 0.75 74.8157 0.75 75.6642C0.75 79.3431 1.65 82.7022 3 84.6216C3.75 86.0612 5.1 86.861 6.75 86.861H9.75C8.4 87.5008 6.6 88.3006 5.85 89.2603C3.45 91.8196 4.5 94.6987 6.9 97.0981C9.3 99.6573 12 100.777 14.25 98.2177C14.7 97.7379 15.75 96.4582 15.75 96.4582C15.75 96.4582 16.65 97.7379 17.25 98.2177C19.65 100.777 22.35 99.6573 24.6 97.0981C27 94.5388 28.05 91.6596 25.65 89.2603C24.9 88.4605 23.1 87.5008 21.75 86.861H24.75C26.4 86.861 27.75 86.0612 28.5 84.6216C29.85 82.7022 30.75 79.3431 30.75 75.6642C30.75 74.8157 30.4339 74.002 29.8713 73.4021C29.3087 72.8021 28.5456 72.4651 27.75 72.4651Z" stroke="white" stroke-width="1.5" stroke-linecap="round" stroke-linejoin="round"/>
<path d="M189.45 203.667C183.75 206.546 183.75 214.863 183.75 214.863M183.75 214.863C183.75 214.863 183.75 206.546 178.05 203.667M183.75 214.863V232.458" stroke="white" stroke-width="1.5" stroke-linecap="round" stroke-linejoin="round"/>
<path d="M195.75 208.465C190.5 208.465 186 214.703 183.75 218.542C181.5 214.703 177 208.465 171.75 208.465C170.954 208.465 170.191 208.802 169.629 209.402C169.066 210.002 168.75 210.816 168.75 211.664C168.75 215.343 169.65 218.702 171 220.622C171.75 222.061 173.1 222.861 174.75 222.861H177.75C176.4 223.501 174.6 224.301 173.85 225.26C171.45 227.82 172.5 230.699 174.9 233.098C177.3 235.657 180 236.777 182.25 234.218C182.7 233.738 183.75 232.458 183.75 232.458C183.75 232.458 184.65 233.738 185.25 234.218C187.65 236.777 190.35 235.657 192.6 233.098C195 230.539 196.05 227.66 193.65 225.26C192.9 224.461 191.1 223.501 189.75 222.861H192.75C194.4 222.861 195.75 222.061 196.5 220.622C197.85 218.702 198.75 215.343 198.75 211.664C198.75 210.816 198.434 210.002 197.871 209.402C197.309 208.802 196.546 208.465 195.75 208.465Z" stroke="white" stroke-width="1.5" stroke-linecap="round" stroke-linejoin="round"/>
<path d="M1199.64 472.501C1199.2 472.941 1198.7 473.271 1198.16 473.472C1197.63 473.672 1197.08 473.739 1196.54 473.669C1196.01 473.599 1195.49 473.393 1195.03 473.064C1194.57 472.734 1194.17 472.287 1193.85 471.749L1185.73 458.204C1180.31 449.064 1191.18 431.849 1200.04 446.778C1212.41 434.638 1218.51 454.06 1210.95 461.486L1199.64 472.501Z" stroke="white" stroke-width="2" stroke-linecap="round" stroke-linejoin="round"/>
<path d="M1232.72 228.501C1232.28 228.941 1231.78 229.271 1231.25 229.472C1230.72 229.672 1230.17 229.739 1229.63 229.669C1229.09 229.599 1228.58 229.393 1228.12 229.064C1227.66 228.734 1227.26 228.287 1226.94 227.749L1218.82 214.204C1213.4 205.064 1224.27 187.849 1233.13 202.778C1245.49 190.638 1251.6 210.06 1244.04 217.486L1232.72 228.501Z" stroke="white" stroke-width="2" stroke-linecap="round" stroke-linejoin="round"/>
<path d="M942.725 87.5014C942.284 87.9413 941.783 88.2712 941.252 88.4717C940.721 88.6722 940.17 88.7394 939.632 88.6693C939.094 88.5993 938.579 88.3934 938.117 88.0637C937.655 87.7339 937.256 87.287 936.942 86.7488L928.816 73.2036C923.396 64.0644 934.271 46.8492 943.129 61.7776C955.493 49.638 961.599 69.0602 954.04 76.4865L942.725 87.5014Z" stroke="white" stroke-width="2" stroke-linecap="round" stroke-linejoin="round"/>
<rect x="1074.4" y="330.439" width="143" height="106" rx="4.5" transform="rotate(7.41536 1074.4 330.439)" stroke="#EFF5DC"/>
<rect x="911.775" y="309.273" width="143" height="106" rx="4.5" transform="rotate(7.41536 911.775 309.273)" stroke="#EFF5DC"/>
<rect x="1089.76" y="212.435" width="143" height="106" rx="4.5" transform="rotate(7.41536 1089.76 212.435)" stroke="#EFF5DC"/>
<rect x="662.25" y="367.5" width="187" height="122" rx="4.5" stroke="#EFF5DC"/>
<rect x="927.133" y="191.268" width="143" height="106" rx="4.5" transform="rotate(7.41536 927.133 191.268)" stroke="#EFF5DC"/>
<rect x="448.25" y="367.5" width="187" height="122" rx="4.5" stroke="#EFF5DC"/>
<rect x="1105.12" y="94.4297" width="143" height="106" rx="4.5" transform="rotate(7.41536 1105.12 94.4297)" stroke="#EFF5DC"/>
<rect x="662.25" y="229.5" width="187" height="123" rx="4.5" stroke="#EFF5DC"/>
<rect x="942.491" y="73.2635" width="143" height="106" rx="4.5" transform="rotate(7.41536 942.491 73.2635)" stroke="#EFF5DC"/>
<rect x="448.25" y="229.5" width="187" height="123" rx="4.5" stroke="#EFF5DC"/>
<rect x="928.867" y="49.5607" width="338.622" height="466.601" rx="4.5" transform="rotate(7.45697 928.867 49.5607)" stroke="#EFF5DC"/>
<rect x="0.49959" y="0.500321" width="442.288" height="305.725" rx="4.5" transform="matrix(1 0.000642739 -0.000820502 1 426.002 204)" stroke="#EFF5DC"/>
<path d="M455.887 248.5C453.58 248.5 451.414 248.064 449.392 247.193C447.369 246.321 445.602 245.129 444.09 243.616C442.578 242.103 441.386 240.335 440.513 238.312C439.64 236.289 439.204 234.124 439.204 231.817C439.204 228.591 440.056 225.63 441.761 222.932C443.466 220.235 445.77 218.191 448.673 216.8C448.889 216.718 449.103 216.683 449.315 216.694C449.527 216.703 449.716 216.76 449.879 216.864C450.03 216.961 450.15 217.106 450.241 217.3C450.331 217.495 450.376 217.733 450.376 218.015C450.508 220.57 451.073 222.992 452.072 225.281C453.071 227.57 454.473 229.618 456.28 231.424C458.086 233.231 460.135 234.633 462.427 235.632C464.718 236.63 467.143 237.196 469.701 237.328C469.99 237.328 470.226 237.369 470.409 237.452C470.592 237.536 470.732 237.653 470.829 237.804C470.933 237.968 470.993 238.159 471.01 238.378C471.027 238.597 470.995 238.811 470.913 239.02C469.532 241.923 467.489 244.228 464.783 245.937C462.077 247.646 459.111 248.5 455.887 248.5ZM455.887 246.667C458.576 246.667 461.066 245.995 463.358 244.65C465.65 243.306 467.452 241.457 468.766 239.104C466.139 238.86 463.648 238.189 461.296 237.093C458.943 235.997 456.834 234.517 454.971 232.653C453.107 230.789 451.625 228.687 450.525 226.346C449.425 224.006 448.768 221.521 448.554 218.892C446.201 220.206 444.36 222.016 443.032 224.324C441.703 226.631 441.038 229.129 441.037 231.817C441.037 235.942 442.481 239.448 445.369 242.336C448.257 245.225 451.763 246.668 455.887 246.667ZM459.684 222.888L457.565 220.769C457.268 220.473 457.119 220.128 457.119 219.733C457.119 219.337 457.268 218.991 457.565 218.696L459.686 216.573C459.983 216.277 460.329 216.129 460.724 216.129C461.118 216.129 461.464 216.277 461.759 216.573L463.882 218.696C464.178 218.991 464.326 219.337 464.326 219.733C464.326 220.129 464.178 220.475 463.882 220.769L461.759 222.892C461.464 223.188 461.118 223.336 460.724 223.336C460.329 223.336 459.983 223.188 459.686 222.892M469.241 228.779L468.176 227.75C467.974 227.549 467.874 227.321 467.874 227.067C467.874 226.812 467.974 226.584 468.176 226.383L469.239 225.352C469.442 225.151 469.665 225.05 469.907 225.05C470.149 225.05 470.371 225.151 470.574 225.352L471.603 226.383C471.805 226.584 471.907 226.812 471.907 227.067C471.907 227.321 471.805 227.549 471.603 227.75L470.574 228.779C470.371 228.982 470.149 229.083 469.907 229.083C469.665 229.083 469.443 228.982 469.241 228.779Z" fill="white"/>
<path d="M847.887 386.5C845.58 386.5 843.414 386.064 841.392 385.193C839.369 384.321 837.602 383.129 836.09 381.616C834.578 380.103 833.386 378.335 832.513 376.312C831.64 374.289 831.204 372.124 831.204 369.817C831.204 366.591 832.056 363.63 833.761 360.932C835.466 358.235 837.77 356.191 840.673 354.8C840.889 354.718 841.103 354.683 841.315 354.694C841.527 354.703 841.716 354.76 841.879 354.864C842.03 354.961 842.15 355.106 842.241 355.3C842.331 355.495 842.376 355.733 842.376 356.015C842.508 358.57 843.073 360.992 844.072 363.281C845.071 365.57 846.473 367.618 848.28 369.424C850.086 371.231 852.135 372.633 854.427 373.632C856.718 374.63 859.143 375.196 861.701 375.328C861.99 375.328 862.226 375.369 862.409 375.452C862.592 375.536 862.732 375.653 862.829 375.804C862.933 375.968 862.993 376.159 863.01 376.378C863.027 376.597 862.995 376.811 862.913 377.02C861.532 379.923 859.489 382.228 856.783 383.937C854.077 385.646 851.111 386.5 847.887 386.5ZM847.887 384.667C850.576 384.667 853.066 383.995 855.358 382.65C857.65 381.306 859.452 379.457 860.766 377.104C858.139 376.86 855.648 376.189 853.296 375.093C850.943 373.997 848.834 372.517 846.971 370.653C845.107 368.789 843.625 366.687 842.525 364.346C841.425 362.006 840.768 359.521 840.554 356.892C838.201 358.206 836.36 360.016 835.032 362.324C833.703 364.631 833.038 367.129 833.037 369.817C833.037 373.942 834.481 377.448 837.369 380.336C840.257 383.225 843.763 384.668 847.887 384.667ZM851.684 360.888L849.565 358.769C849.268 358.473 849.119 358.128 849.119 357.733C849.119 357.337 849.268 356.991 849.565 356.696L851.686 354.573C851.983 354.277 852.329 354.129 852.724 354.129C853.118 354.129 853.464 354.277 853.759 354.573L855.882 356.696C856.178 356.991 856.326 357.337 856.326 357.733C856.326 358.129 856.178 358.475 855.882 358.769L853.759 360.892C853.464 361.188 853.118 361.336 852.724 361.336C852.329 361.336 851.983 361.188 851.686 360.892M861.241 366.779L860.176 365.75C859.974 365.549 859.874 365.321 859.874 365.067C859.874 364.812 859.974 364.584 860.176 364.383L861.239 363.352C861.442 363.151 861.665 363.05 861.907 363.05C862.149 363.05 862.371 363.151 862.574 363.352L863.603 364.383C863.805 364.584 863.907 364.812 863.907 365.067C863.907 365.321 863.805 365.549 863.603 365.75L862.574 366.779C862.371 366.982 862.149 367.083 861.907 367.083C861.665 367.083 861.443 366.982 861.241 366.779Z" fill="white"/>
<path d="M513.887 503.5C511.58 503.5 509.414 503.064 507.392 502.193C505.369 501.321 503.602 500.129 502.09 498.616C500.578 497.103 499.386 495.335 498.513 493.312C497.64 491.289 497.204 489.124 497.204 486.817C497.204 483.591 498.056 480.63 499.761 477.932C501.466 475.235 503.77 473.191 506.673 471.8C506.889 471.718 507.103 471.683 507.315 471.694C507.527 471.703 507.716 471.76 507.879 471.864C508.03 471.961 508.15 472.106 508.241 472.3C508.331 472.495 508.376 472.733 508.376 473.015C508.508 475.57 509.073 477.992 510.072 480.281C511.071 482.57 512.473 484.618 514.28 486.424C516.086 488.231 518.135 489.633 520.427 490.632C522.718 491.63 525.143 492.196 527.701 492.328C527.99 492.328 528.226 492.369 528.409 492.452C528.592 492.536 528.732 492.653 528.829 492.804C528.933 492.968 528.993 493.159 529.01 493.378C529.027 493.597 528.995 493.811 528.913 494.02C527.532 496.923 525.489 499.228 522.783 500.937C520.077 502.646 517.111 503.5 513.887 503.5ZM513.887 501.667C516.576 501.667 519.066 500.995 521.358 499.65C523.65 498.306 525.452 496.457 526.766 494.104C524.139 493.86 521.648 493.189 519.296 492.093C516.943 490.997 514.834 489.517 512.971 487.653C511.107 485.789 509.625 483.687 508.525 481.346C507.425 479.006 506.768 476.521 506.554 473.892C504.201 475.206 502.36 477.016 501.032 479.324C499.703 481.631 499.038 484.129 499.037 486.817C499.037 490.942 500.481 494.448 503.369 497.336C506.257 500.225 509.763 501.668 513.887 501.667ZM517.684 477.888L515.565 475.769C515.268 475.473 515.119 475.128 515.119 474.733C515.119 474.337 515.268 473.991 515.565 473.696L517.686 471.573C517.983 471.277 518.329 471.129 518.724 471.129C519.118 471.129 519.464 471.277 519.759 471.573L521.882 473.696C522.178 473.991 522.326 474.337 522.326 474.733C522.326 475.129 522.178 475.475 521.882 475.769L519.759 477.892C519.464 478.188 519.118 478.336 518.724 478.336C518.329 478.336 517.983 478.188 517.686 477.892M527.241 483.779L526.176 482.75C525.974 482.549 525.874 482.321 525.874 482.067C525.874 481.812 525.974 481.584 526.176 481.383L527.239 480.352C527.442 480.151 527.665 480.05 527.907 480.05C528.149 480.05 528.371 480.151 528.574 480.352L529.603 481.383C529.805 481.584 529.907 481.812 529.907 482.067C529.907 482.321 529.805 482.549 529.603 482.75L528.574 483.779C528.371 483.982 528.149 484.083 527.907 484.083C527.665 484.083 527.443 483.982 527.241 483.779Z" fill="white"/>
</svg>
