<svg width="15" height="15" viewBox="0 0 15 15" fill="none" xmlns="http://www.w3.org/2000/svg">
<path d="M10.2634 1.09084C9.56172 0.387386 8.5817 0 7.5 0C6.41253 0 5.42926 0.385042 4.73085 1.08415C4.02486 1.79095 3.68087 2.75155 3.76164 3.78882C3.92173 5.83523 5.59873 7.49996 7.5 7.49996C9.40127 7.49996 11.0754 5.83557 11.238 3.78949C11.3198 2.76159 10.9737 1.803 10.2634 1.09084ZM13.846 14.9999H1.15402C0.987895 15.0019 0.823376 14.9695 0.672434 14.905C0.521493 14.8406 0.387925 14.7457 0.281448 14.6273C0.0470799 14.3671 -0.0473886 14.0119 0.0225614 13.6526C0.32688 12.085 1.27661 10.7681 2.76936 9.84369C4.09553 9.02305 5.77541 8.57138 7.5 8.57138C9.22459 8.57138 10.9045 9.02339 12.2306 9.84369C13.7234 10.7678 14.6731 12.0846 14.9774 13.6523C15.0474 14.0115 14.9529 14.3668 14.7186 14.6269C14.6121 14.7454 14.4786 14.8404 14.3276 14.9049C14.1767 14.9694 14.0121 15.0019 13.846 14.9999Z" fill="white"/>
</svg>
