<svg width="105" height="105" viewBox="0 0 105 105" fill="none" xmlns="http://www.w3.org/2000/svg">
<path d="M52.5 52.5C45.2812 52.5 39.1016 49.9297 33.9609 44.7891C28.8203 39.6484 26.25 33.4688 26.25 26.25C26.25 19.0312 28.8203 12.8516 33.9609 7.71094C39.1016 2.57031 45.2812 0 52.5 0C59.7187 0 65.8984 2.57031 71.039 7.71094C76.1797 12.8516 78.75 19.0312 78.75 26.25C78.75 33.4688 76.1797 39.6484 71.039 44.7891C65.8984 49.9297 59.7187 52.5 52.5 52.5ZM0 105V86.625C0 82.9063 0.958126 79.4894 2.87438 76.3744C4.79063 73.2594 7.3325 70.8794 10.5 69.2344C17.2812 65.8438 24.1719 63.3019 31.1719 61.6087C38.1719 59.9156 45.2812 59.0669 52.5 59.0625C59.7187 59.0581 66.8281 59.9069 73.8281 61.6087C80.8281 63.3106 87.7187 65.8525 94.5 69.2344C97.6719 70.875 100.216 73.255 102.132 76.3744C104.048 79.4937 105.004 82.9106 105 86.625V105H0Z" fill="white"/>
</svg>
