<svg width="23" height="15" viewBox="0 0 23 15" fill="none" xmlns="http://www.w3.org/2000/svg">
<path d="M15.3332 7.49999C14.348 7.49999 13.3955 7.1088 12.6499 6.39886C11.9249 5.70639 11.4822 4.78295 11.4041 3.79943C11.3207 2.75028 11.6805 1.78551 12.417 1.08239C13.1535 0.379261 14.1832 0 15.3332 0C16.475 0 17.5076 0.386079 18.2417 1.0875C18.983 1.79574 19.3438 2.7588 19.2604 3.799C19.1804 4.7838 18.7381 5.70681 18.0146 6.39843C17.2709 7.1088 16.3188 7.49999 15.3332 7.49999ZM21.65 15H9.01686C8.81374 15.0009 8.61309 14.9605 8.43033 14.8816C8.24758 14.8028 8.0876 14.6877 7.96269 14.5453C7.83021 14.3909 7.73872 14.2118 7.69507 14.0215C7.65142 13.8312 7.65675 13.6345 7.71065 13.4463C8.11411 12.0055 9.11365 10.8106 10.601 9.99118C11.9211 9.26419 13.6015 8.86363 15.3332 8.86363C17.0989 8.86363 18.7353 9.24715 20.063 9.97371C21.5537 10.7889 22.5547 11.9906 22.9562 13.4488C23.0095 13.6372 23.0142 13.8338 22.9701 14.0241C22.9259 14.2143 22.8341 14.3932 22.7013 14.5474C22.5765 14.6892 22.4169 14.8037 22.2347 14.8822C22.0525 14.9606 21.8525 15.0009 21.65 15ZM6.277 7.67045C4.59082 7.67045 3.10828 6.27613 2.97076 4.56264C2.90272 3.6848 3.21035 2.87301 3.83326 2.2777C4.44946 1.68835 5.31867 1.36363 6.277 1.36363C7.23532 1.36363 8.09782 1.69006 8.71738 2.28281C9.34508 2.88281 9.65175 3.69289 9.57987 4.56349C9.44235 6.27656 7.9603 7.67045 6.277 7.67045ZM9.42319 9.01064C8.58034 8.64417 7.48641 8.46093 6.27747 8.46093C4.86586 8.46093 3.49497 8.7882 2.41685 9.38223C1.1945 10.0568 0.372256 11.0391 0.0401953 12.225C-0.00839909 12.3956 -0.0129953 12.5737 0.0267506 12.7461C0.0664965 12.9185 0.149555 13.0806 0.269715 13.2204C0.383731 13.3506 0.529798 13.4558 0.696682 13.5279C0.863566 13.6 1.04682 13.6371 1.23236 13.6363H6.55108C6.64085 13.6363 6.72777 13.6083 6.79668 13.5571C6.8656 13.506 6.91213 13.4349 6.92818 13.3564C6.93345 13.3295 6.94016 13.3027 6.94783 13.2763C7.35416 11.8248 8.30626 10.5984 9.71308 9.70439C9.76483 9.67122 9.80644 9.62709 9.83417 9.576C9.86189 9.52492 9.87484 9.46848 9.87184 9.41182C9.86884 9.35516 9.84999 9.30005 9.817 9.25151C9.784 9.20296 9.73791 9.1625 9.68289 9.1338C9.60767 9.09459 9.52142 9.05326 9.42319 9.01064Z" fill="white"/>
</svg>
