<svg width="155" height="106" viewBox="0 0 155 106" fill="none" xmlns="http://www.w3.org/2000/svg">
<path d="M105.682 45.4286C117.377 45.4286 126.748 35.2829 126.748 22.7143C126.748 10.1457 117.377 0 105.682 0C93.9864 0 84.5455 10.1457 84.5455 22.7143C84.5455 35.2829 93.9864 45.4286 105.682 45.4286ZM49.3182 45.4286C61.0136 45.4286 70.3841 35.2829 70.3841 22.7143C70.3841 10.1457 61.0136 0 49.3182 0C37.6227 0 28.1818 10.1457 28.1818 22.7143C28.1818 35.2829 37.6227 45.4286 49.3182 45.4286ZM49.3182 60.5714C32.9023 60.5714 0 69.43 0 87.0714V106H98.6364V87.0714C98.6364 69.43 65.7341 60.5714 49.3182 60.5714ZM105.682 60.5714C103.639 60.5714 101.314 60.7229 98.8477 60.95C107.02 67.31 112.727 75.8657 112.727 87.0714V106H155V87.0714C155 69.43 122.098 60.5714 105.682 60.5714Z" fill="white"/>
</svg>
